<svg xmlns="http://www.w3.org/2000/svg" xmlns:xlink="http://www.w3.org/1999/xlink" width="1080" zoomAndPan="magnify" viewBox="0 0 810 809.999993" height="1080" preserveAspectRatio="xMidYMid meet" version="1.0"><defs><g/><clipPath id="714b6174be"><path d="M 243 103 L 314 103 L 314 229.65625 L 243 229.65625 Z M 243 103 " clip-rule="nonzero"/></clipPath><clipPath id="9b0d736c2a"><path d="M 365 48.90625 L 431 48.90625 L 431 198 L 365 198 Z M 365 48.90625 " clip-rule="nonzero"/></clipPath><clipPath id="732857ae2d"><path d="M 243 548.246094 L 314 548.246094 L 314 675 L 243 675 Z M 243 548.246094 " clip-rule="nonzero"/></clipPath><clipPath id="659b30f873"><path d="M 365 580 L 431 580 L 431 728.714844 L 365 728.714844 Z M 365 580 " clip-rule="nonzero"/></clipPath></defs><rect x="-81" width="972" fill="#ffffff" y="-80.999999" height="971.999992" fill-opacity="1"/><rect x="-81" width="972" fill="#3ee0bb" y="-80.999999" height="971.999992" fill-opacity="1"/><g clip-path="url(#714b6174be)"><path fill="#000000" d="M 299.800781 173.367188 C 299.355469 180.5625 298.394531 187.484375 297.210938 194.460938 C 296.304688 192.625 295.4375 190.863281 294.605469 189.171875 C 278.628906 156.738281 275.304688 149.988281 258.242188 109.816406 L 255.574219 103.539062 L 243 108.863281 L 245.667969 115.140625 C 262.878906 155.664062 266.234375 162.472656 282.347656 195.191406 C 283.566406 197.660156 284.855469 200.28125 286.230469 203.070312 C 279.820312 199.207031 273.679688 195.105469 265.015625 188.402344 L 259.621094 184.226562 L 251.25 195.003906 L 256.648438 199.179688 C 270.410156 209.832031 278.476562 214.453125 289.644531 220.847656 C 291.753906 222.054688 293.933594 223.300781 296.308594 224.679688 L 304.792969 229.601562 L 306.46875 219.949219 C 307.101562 216.285156 307.785156 212.617188 308.449219 209.070312 C 310.53125 197.902344 312.683594 186.359375 313.433594 174.207031 L 313.855469 167.402344 L 300.222656 166.5625 Z M 299.800781 173.367188 " fill-opacity="1" fill-rule="nonzero"/></g><g clip-path="url(#9b0d736c2a)"><path fill="#000000" d="M 415.152344 148.480469 C 413.34375 150.808594 411.859375 152.734375 410.546875 154.433594 C 407.316406 158.628906 405.214844 161.351562 402.148438 165.046875 C 407.238281 129.289062 412.066406 93.144531 416.519531 57.414062 L 417.363281 50.648438 L 403.808594 48.964844 L 402.964844 55.730469 C 398.484375 91.671875 393.625 128.039062 388.5 164 C 385.964844 159.53125 383.46875 155.046875 381.03125 150.566406 L 377.769531 144.578125 L 365.769531 151.089844 L 369.03125 157.082031 C 374.90625 167.867188 381.089844 178.691406 387.410156 189.25 L 392.21875 197.28125 L 398.402344 190.25 C 412.726562 173.964844 414.730469 171.367188 421.371094 162.753906 C 422.675781 161.0625 424.152344 159.144531 425.945312 156.839844 L 430.128906 151.453125 L 419.335938 143.09375 Z M 415.152344 148.480469 " fill-opacity="1" fill-rule="nonzero"/></g><path fill="#000000" d="M 562.777344 127.597656 L 567 122.238281 L 556.261719 113.808594 L 552.042969 119.167969 C 540.800781 133.4375 528.054688 147.910156 515.726562 161.90625 C 506.703125 172.148438 497.457031 182.644531 488.6875 193.191406 L 491.390625 169.398438 L 477.820312 167.859375 L 471.199219 226.089844 L 481.167969 223.03125 C 484.457031 222.019531 487.46875 221.121094 490.375 220.253906 C 500.710938 217.164062 509.636719 214.496094 522.421875 209.40625 L 528.761719 206.878906 L 523.703125 194.210938 L 517.359375 196.738281 C 509.734375 199.777344 503.660156 201.875 497.632812 203.785156 C 506.746094 192.75 516.488281 181.691406 525.980469 170.914062 C 538.433594 156.78125 551.304688 142.164062 562.777344 127.597656 Z M 562.777344 127.597656 " fill-opacity="1" fill-rule="nonzero"/><g fill="#000000" fill-opacity="1"><g transform="translate(179.317498, 349.700159)"><g><path d="M 92.09375 -73.203125 C 96.570312 -71.597656 98.8125 -69.457031 98.8125 -66.78125 C 98.8125 -65.90625 98.410156 -64.265625 97.609375 -61.859375 L 78.328125 -6.125 C 78.191406 -5.65625 77.957031 -5.085938 77.625 -4.421875 C 77.289062 -3.753906 76.40625 -2.863281 74.96875 -1.75 C 73.53125 -0.644531 71.820312 -0.09375 69.84375 -0.09375 C 67.863281 -0.09375 66.15625 -0.644531 64.71875 -1.75 C 63.28125 -2.863281 62.328125 -3.953125 61.859375 -5.015625 L 50.109375 -39.671875 C 42.679688 -17.710938 38.898438 -6.53125 38.765625 -6.125 C 38.628906 -5.71875 38.328125 -5.144531 37.859375 -4.40625 C 37.390625 -3.675781 36.851562 -3.007812 36.25 -2.40625 C 34.707031 -0.863281 32.863281 -0.09375 30.71875 -0.09375 C 28.582031 -0.09375 26.828125 -0.59375 25.453125 -1.59375 C 24.078125 -2.601562 23.160156 -3.613281 22.703125 -4.625 L 22 -6.125 L 2.609375 -61.859375 C 1.867188 -64.066406 1.5 -65.707031 1.5 -66.78125 C 1.5 -69.457031 3.742188 -71.566406 8.234375 -73.109375 C 10.171875 -73.773438 11.925781 -74.109375 13.5 -74.109375 C 15.070312 -74.109375 16.273438 -73.570312 17.109375 -72.5 C 17.953125 -71.425781 18.707031 -69.785156 19.375 -67.578125 L 30.421875 -34.046875 L 41.375 -67.078125 C 42.3125 -69.890625 44.019531 -71.832031 46.5 -72.90625 C 47.570312 -73.375 48.957031 -73.609375 50.65625 -73.609375 C 52.363281 -73.609375 53.953125 -73.054688 55.421875 -71.953125 C 56.898438 -70.847656 57.84375 -69.757812 58.25 -68.6875 L 69.796875 -33.84375 L 80.84375 -67.578125 C 81.375 -69.117188 81.804688 -70.257812 82.140625 -71 C 82.472656 -71.738281 83.09375 -72.457031 84 -73.15625 C 84.90625 -73.863281 86.023438 -74.21875 87.359375 -74.21875 C 88.703125 -74.21875 90.28125 -73.878906 92.09375 -73.203125 Z M 92.09375 -73.203125 "/></g></g></g><g fill="#000000" fill-opacity="1"><g transform="translate(279.629979, 349.700159)"><g><path d="M 33.34375 -52.71875 C 40.03125 -52.71875 45.597656 -50.171875 50.046875 -45.078125 C 54.503906 -39.992188 56.734375 -33.769531 56.734375 -26.40625 L 56.734375 -8.734375 C 56.734375 -7.191406 56.679688 -6.035156 56.578125 -5.265625 C 56.484375 -4.503906 56.171875 -3.617188 55.640625 -2.609375 C 54.765625 -0.867188 52.1875 0 47.90625 0 C 43.820312 0 41.273438 -0.867188 40.265625 -2.609375 C 39.734375 -3.617188 39.414062 -4.523438 39.3125 -5.328125 C 39.21875 -6.128906 39.171875 -7.332031 39.171875 -8.9375 L 39.171875 -26.515625 C 39.171875 -29.253906 38.398438 -31.394531 36.859375 -32.9375 C 35.316406 -34.476562 33.359375 -35.25 30.984375 -35.25 C 28.609375 -35.25 26.515625 -34.53125 24.703125 -33.09375 C 22.898438 -31.65625 21.863281 -30.03125 21.59375 -28.21875 L 21.59375 -8.734375 C 21.59375 -7.191406 21.539062 -6.035156 21.4375 -5.265625 C 21.34375 -4.503906 21.023438 -3.617188 20.484375 -2.609375 C 19.617188 -0.867188 17.039062 0 12.75 0 C 8.53125 0 5.953125 -0.90625 5.015625 -2.71875 C 4.546875 -3.71875 4.257812 -4.582031 4.15625 -5.3125 C 4.0625 -6.050781 4.015625 -7.226562 4.015625 -8.84375 L 4.015625 -68.890625 C 4.015625 -70.429688 4.0625 -71.585938 4.15625 -72.359375 C 4.257812 -73.128906 4.546875 -73.984375 5.015625 -74.921875 C 5.953125 -76.722656 8.566406 -77.625 12.859375 -77.625 C 17.078125 -77.625 19.617188 -76.722656 20.484375 -74.921875 C 21.023438 -73.910156 21.34375 -73.019531 21.4375 -72.25 C 21.539062 -71.476562 21.59375 -70.320312 21.59375 -68.78125 L 21.59375 -46.59375 C 24.9375 -50.675781 28.851562 -52.71875 33.34375 -52.71875 Z M 33.34375 -52.71875 "/></g></g></g><g fill="#000000" fill-opacity="1"><g transform="translate(340.379782, 349.700159)"><g><path d="M 38.359375 -47.296875 C 38.765625 -51.046875 41.410156 -52.921875 46.296875 -52.921875 C 48.910156 -52.921875 50.851562 -52.71875 52.125 -52.3125 C 53.394531 -51.914062 54.28125 -51.210938 54.78125 -50.203125 C 55.28125 -49.203125 55.578125 -48.316406 55.671875 -47.546875 C 55.773438 -46.773438 55.828125 -45.617188 55.828125 -44.078125 L 55.828125 -8.9375 C 55.828125 -7.394531 55.773438 -6.238281 55.671875 -5.46875 C 55.578125 -4.695312 55.296875 -3.8125 54.828125 -2.8125 C 53.890625 -1.070312 51.597656 -0.203125 47.953125 -0.203125 C 44.304688 -0.203125 41.863281 -0.648438 40.625 -1.546875 C 39.382812 -2.453125 38.664062 -3.773438 38.46875 -5.515625 C 35.988281 -1.972656 31.851562 -0.203125 26.0625 -0.203125 C 20.269531 -0.203125 14.894531 -2.84375 9.9375 -8.125 C 4.988281 -13.414062 2.515625 -19.5625 2.515625 -26.5625 C 2.515625 -33.5625 5.003906 -39.6875 9.984375 -44.9375 C 14.972656 -50.195312 20.445312 -52.828125 26.40625 -52.828125 C 28.6875 -52.828125 30.765625 -52.421875 32.640625 -51.609375 C 34.515625 -50.804688 35.816406 -50.050781 36.546875 -49.34375 C 37.285156 -48.644531 37.890625 -47.960938 38.359375 -47.296875 Z M 20.078125 -26.40625 C 20.078125 -24.195312 20.945312 -22.207031 22.6875 -20.4375 C 24.4375 -18.664062 26.546875 -17.78125 29.015625 -17.78125 C 31.492188 -17.78125 33.550781 -18.679688 35.1875 -20.484375 C 36.832031 -22.296875 37.65625 -24.285156 37.65625 -26.453125 C 37.65625 -28.628906 36.867188 -30.65625 35.296875 -32.53125 C 33.722656 -34.40625 31.613281 -35.34375 28.96875 -35.34375 C 26.320312 -35.34375 24.175781 -34.40625 22.53125 -32.53125 C 20.894531 -30.65625 20.078125 -28.613281 20.078125 -26.40625 Z M 20.078125 -26.40625 "/></g></g></g><g fill="#000000" fill-opacity="1"><g transform="translate(400.225875, 349.700159)"><g><path d="M 34.75 -35.140625 L 28.21875 -35.546875 L 28.21875 -21.6875 C 28.21875 -19.882812 28.5 -18.578125 29.0625 -17.765625 C 29.632812 -16.960938 30.707031 -16.5625 32.28125 -16.5625 C 33.851562 -16.5625 35.054688 -16.507812 35.890625 -16.40625 C 36.734375 -16.3125 37.625 -16 38.5625 -15.46875 C 40.101562 -14.59375 40.875 -12.347656 40.875 -8.734375 C 40.875 -4.515625 39.9375 -1.9375 38.0625 -1 C 37.050781 -0.53125 36.160156 -0.242188 35.390625 -0.140625 C 34.628906 -0.046875 33.507812 0 32.03125 0 C 25.070312 0 19.785156 -1.570312 16.171875 -4.71875 C 12.554688 -7.863281 10.75 -13.1875 10.75 -20.6875 L 10.75 -35.546875 C 9.476562 -35.347656 8.101562 -35.25 6.625 -35.25 C 5.15625 -35.25 3.929688 -35.816406 2.953125 -36.953125 C 1.984375 -38.085938 1.5 -40.023438 1.5 -42.765625 C 1.5 -45.515625 1.664062 -47.507812 2 -48.75 C 2.34375 -49.988281 2.816406 -50.878906 3.421875 -51.421875 C 4.484375 -52.285156 5.820312 -52.71875 7.4375 -52.71875 L 10.75 -52.3125 L 10.75 -62.65625 C 10.75 -64.195312 10.796875 -65.335938 10.890625 -66.078125 C 10.992188 -66.816406 11.3125 -67.617188 11.84375 -68.484375 C 12.71875 -70.160156 15.296875 -71 19.578125 -71 C 24.128906 -71 26.84375 -69.757812 27.71875 -67.28125 C 28.050781 -66.207031 28.21875 -64.5 28.21875 -62.15625 L 28.21875 -52.3125 C 31.164062 -52.582031 33.390625 -52.71875 34.890625 -52.71875 C 36.398438 -52.71875 37.539062 -52.664062 38.3125 -52.5625 C 39.082031 -52.46875 39.96875 -52.148438 40.96875 -51.609375 C 42.707031 -50.742188 43.578125 -48.171875 43.578125 -43.890625 C 43.578125 -39.671875 42.675781 -37.09375 40.875 -36.15625 C 39.863281 -35.6875 38.972656 -35.398438 38.203125 -35.296875 C 37.441406 -35.191406 36.289062 -35.140625 34.75 -35.140625 Z M 34.75 -35.140625 "/></g></g></g><g fill="#000000" fill-opacity="1"><g transform="translate(445.311283, 349.700159)"><g/></g></g><g fill="#000000" fill-opacity="1"><g transform="translate(470.715768, 349.700159)"><g><path d="M 4.015625 -44.078125 C 4.015625 -45.617188 4.0625 -46.773438 4.15625 -47.546875 C 4.257812 -48.316406 4.546875 -49.207031 5.015625 -50.21875 C 5.953125 -51.957031 8.566406 -52.828125 12.859375 -52.828125 C 16.066406 -52.828125 18.34375 -52.253906 19.6875 -51.109375 C 20.820312 -50.171875 21.421875 -48.734375 21.484375 -46.796875 C 21.554688 -46.128906 21.59375 -45.160156 21.59375 -43.890625 L 21.59375 -8.734375 C 21.59375 -7.191406 21.539062 -6.035156 21.4375 -5.265625 C 21.34375 -4.503906 21.023438 -3.617188 20.484375 -2.609375 C 19.617188 -0.867188 17.039062 0 12.75 0 C 8.53125 0 5.953125 -0.90625 5.015625 -2.71875 C 4.546875 -3.71875 4.257812 -4.582031 4.15625 -5.3125 C 4.0625 -6.050781 4.015625 -7.226562 4.015625 -8.84375 Z M 20.53125 -62.703125 C 20.03125 -61.734375 19.144531 -61.046875 17.875 -60.640625 C 16.601562 -60.242188 14.910156 -60.046875 12.796875 -60.046875 C 10.691406 -60.046875 9.003906 -60.242188 7.734375 -60.640625 C 6.460938 -61.046875 5.570312 -61.75 5.0625 -62.75 C 4.5625 -63.757812 4.257812 -64.648438 4.15625 -65.421875 C 4.0625 -66.191406 4.015625 -67.347656 4.015625 -68.890625 C 4.015625 -70.429688 4.0625 -71.585938 4.15625 -72.359375 C 4.257812 -73.128906 4.546875 -73.984375 5.015625 -74.921875 C 5.953125 -76.722656 8.566406 -77.625 12.859375 -77.625 C 17.078125 -77.625 19.617188 -76.722656 20.484375 -74.921875 C 21.023438 -73.910156 21.34375 -73.019531 21.4375 -72.25 C 21.539062 -71.476562 21.59375 -70.320312 21.59375 -68.78125 C 21.59375 -67.25 21.539062 -66.097656 21.4375 -65.328125 C 21.34375 -64.554688 21.039062 -63.679688 20.53125 -62.703125 Z M 20.53125 -62.703125 "/></g></g></g><g fill="#000000" fill-opacity="1"><g transform="translate(496.321054, 349.700159)"><g><path d="M 4.421875 -4.71875 C 3.148438 -5.519531 2.515625 -6.789062 2.515625 -8.53125 C 2.515625 -10.269531 3.785156 -12.914062 6.328125 -16.46875 C 7.066406 -17.601562 8.253906 -18.171875 9.890625 -18.171875 C 11.535156 -18.171875 13.757812 -17.347656 16.5625 -15.703125 C 19.375 -14.066406 21.921875 -13.25 24.203125 -13.25 C 28.285156 -13.25 30.328125 -14.054688 30.328125 -15.671875 C 30.328125 -16.941406 28.082031 -17.878906 23.59375 -18.484375 C 19.375 -19.078125 15.191406 -20.648438 11.046875 -23.203125 C 9.109375 -24.398438 7.5 -26.285156 6.21875 -28.859375 C 4.945312 -31.441406 4.3125 -34.507812 4.3125 -38.0625 C 4.3125 -48.632812 11.578125 -53.921875 26.109375 -53.921875 C 30.859375 -53.921875 35.742188 -52.785156 40.765625 -50.515625 C 43.109375 -49.441406 44.28125 -48.097656 44.28125 -46.484375 C 44.28125 -44.878906 43.546875 -42.90625 42.078125 -40.5625 C 40.609375 -38.226562 39.101562 -37.0625 37.5625 -37.0625 C 36.757812 -37.0625 35.269531 -37.5625 33.09375 -38.5625 C 30.914062 -39.5625 28.554688 -40.0625 26.015625 -40.0625 C 22.054688 -40.0625 20.078125 -39.328125 20.078125 -37.859375 C 20.078125 -35.847656 22.351562 -34.539062 26.90625 -33.9375 C 31.332031 -33.46875 35.617188 -32.195312 39.765625 -30.125 C 41.703125 -29.1875 43.320312 -27.5625 44.625 -25.25 C 45.9375 -22.945312 46.59375 -20.050781 46.59375 -16.5625 C 46.59375 -13.082031 45.9375 -10.117188 44.625 -7.671875 C 43.320312 -5.234375 41.503906 -3.410156 39.171875 -2.203125 C 34.878906 -0.128906 29.503906 0.90625 23.046875 0.90625 C 16.585938 0.90625 10.378906 -0.96875 4.421875 -4.71875 Z M 4.421875 -4.71875 "/></g></g></g><g fill="#000000" fill-opacity="1"><g transform="translate(545.422962, 349.700159)"><g/></g></g><g fill="#000000" fill-opacity="1"><g transform="translate(570.827447, 349.700159)"><g><path d="M 38.359375 -47.296875 C 38.765625 -51.046875 41.410156 -52.921875 46.296875 -52.921875 C 48.910156 -52.921875 50.851562 -52.71875 52.125 -52.3125 C 53.394531 -51.914062 54.28125 -51.210938 54.78125 -50.203125 C 55.28125 -49.203125 55.578125 -48.316406 55.671875 -47.546875 C 55.773438 -46.773438 55.828125 -45.617188 55.828125 -44.078125 L 55.828125 -8.9375 C 55.828125 -7.394531 55.773438 -6.238281 55.671875 -5.46875 C 55.578125 -4.695312 55.296875 -3.8125 54.828125 -2.8125 C 53.890625 -1.070312 51.597656 -0.203125 47.953125 -0.203125 C 44.304688 -0.203125 41.863281 -0.648438 40.625 -1.546875 C 39.382812 -2.453125 38.664062 -3.773438 38.46875 -5.515625 C 35.988281 -1.972656 31.851562 -0.203125 26.0625 -0.203125 C 20.269531 -0.203125 14.894531 -2.84375 9.9375 -8.125 C 4.988281 -13.414062 2.515625 -19.5625 2.515625 -26.5625 C 2.515625 -33.5625 5.003906 -39.6875 9.984375 -44.9375 C 14.972656 -50.195312 20.445312 -52.828125 26.40625 -52.828125 C 28.6875 -52.828125 30.765625 -52.421875 32.640625 -51.609375 C 34.515625 -50.804688 35.816406 -50.050781 36.546875 -49.34375 C 37.285156 -48.644531 37.890625 -47.960938 38.359375 -47.296875 Z M 20.078125 -26.40625 C 20.078125 -24.195312 20.945312 -22.207031 22.6875 -20.4375 C 24.4375 -18.664062 26.546875 -17.78125 29.015625 -17.78125 C 31.492188 -17.78125 33.550781 -18.679688 35.1875 -20.484375 C 36.832031 -22.296875 37.65625 -24.285156 37.65625 -26.453125 C 37.65625 -28.628906 36.867188 -30.65625 35.296875 -32.53125 C 33.722656 -34.40625 31.613281 -35.34375 28.96875 -35.34375 C 26.320312 -35.34375 24.175781 -34.40625 22.53125 -32.53125 C 20.894531 -30.65625 20.078125 -28.613281 20.078125 -26.40625 Z M 20.078125 -26.40625 "/></g></g></g><g fill="#000000" fill-opacity="1"><g transform="translate(201.456572, 489.978043)"><g><path d="M 58.34375 -58.734375 C 60.082031 -55.191406 60.953125 -51.242188 60.953125 -46.890625 C 60.953125 -42.546875 60.082031 -38.613281 58.34375 -35.09375 C 56.601562 -31.582031 54.359375 -28.789062 51.609375 -26.71875 C 46.054688 -22.425781 40.300781 -20.28125 34.34375 -20.28125 L 21.796875 -20.28125 L 21.796875 -8.9375 C 21.796875 -7.394531 21.742188 -6.238281 21.640625 -5.46875 C 21.535156 -4.695312 21.21875 -3.8125 20.6875 -2.8125 C 19.75 -1 17.140625 -0.09375 12.859375 -0.09375 C 8.171875 -0.09375 5.425781 -1.332031 4.625 -3.8125 C 4.21875 -4.945312 4.015625 -6.6875 4.015625 -9.03125 L 4.015625 -64.765625 C 4.015625 -66.304688 4.0625 -67.460938 4.15625 -68.234375 C 4.257812 -69.003906 4.582031 -69.890625 5.125 -70.890625 C 6.0625 -72.703125 8.671875 -73.609375 12.953125 -73.609375 L 34.4375 -73.609375 C 40.332031 -73.609375 46.054688 -71.46875 51.609375 -67.1875 C 54.359375 -65.101562 56.601562 -62.285156 58.34375 -58.734375 Z M 34.4375 -38.0625 C 36.445312 -38.0625 38.421875 -38.796875 40.359375 -40.265625 C 42.304688 -41.742188 43.28125 -43.953125 43.28125 -46.890625 C 43.28125 -49.835938 42.304688 -52.0625 40.359375 -53.5625 C 38.421875 -55.070312 36.414062 -55.828125 34.34375 -55.828125 L 21.796875 -55.828125 L 21.796875 -38.0625 Z M 34.4375 -38.0625 "/></g></g></g><g fill="#000000" fill-opacity="1"><g transform="translate(264.917518, 489.978043)"><g><path d="M 2.515625 -26.40625 C 2.515625 -34.445312 5.320312 -41.078125 10.9375 -46.296875 C 16.5625 -51.515625 22.988281 -54.125 30.21875 -54.125 C 37.457031 -54.125 43.851562 -51.53125 49.40625 -46.34375 C 54.96875 -41.15625 57.75 -34.546875 57.75 -26.515625 C 57.75 -20.953125 56.304688 -16.007812 53.421875 -11.6875 C 50.546875 -7.375 47.046875 -4.195312 42.921875 -2.15625 C 38.804688 -0.113281 34.539062 0.90625 30.125 0.90625 C 25.707031 0.90625 21.421875 -0.179688 17.265625 -2.359375 C 13.117188 -4.535156 9.625 -7.75 6.78125 -12 C 3.9375 -16.25 2.515625 -21.050781 2.515625 -26.40625 Z M 23.5 -19.21875 C 25.644531 -17.582031 27.820312 -16.765625 30.03125 -16.765625 C 32.238281 -16.765625 34.445312 -17.601562 36.65625 -19.28125 C 38.863281 -20.957031 39.96875 -23.4375 39.96875 -26.71875 C 39.96875 -30 38.925781 -32.441406 36.84375 -34.046875 C 34.769531 -35.648438 32.53125 -36.453125 30.125 -36.453125 C 27.71875 -36.453125 25.472656 -35.613281 23.390625 -33.9375 C 21.316406 -32.269531 20.28125 -29.8125 20.28125 -26.5625 C 20.28125 -23.3125 21.351562 -20.863281 23.5 -19.21875 Z M 23.5 -19.21875 "/></g></g></g><g fill="#000000" fill-opacity="1"><g transform="translate(325.165259, 489.978043)"><g><path d="M 4.015625 -44.078125 C 4.015625 -45.617188 4.0625 -46.773438 4.15625 -47.546875 C 4.257812 -48.316406 4.546875 -49.207031 5.015625 -50.21875 C 5.953125 -51.957031 8.566406 -52.828125 12.859375 -52.828125 C 16.066406 -52.828125 18.34375 -52.253906 19.6875 -51.109375 C 20.820312 -50.171875 21.421875 -48.734375 21.484375 -46.796875 C 21.554688 -46.128906 21.59375 -45.160156 21.59375 -43.890625 L 21.59375 -8.734375 C 21.59375 -7.191406 21.539062 -6.035156 21.4375 -5.265625 C 21.34375 -4.503906 21.023438 -3.617188 20.484375 -2.609375 C 19.617188 -0.867188 17.039062 0 12.75 0 C 8.53125 0 5.953125 -0.90625 5.015625 -2.71875 C 4.546875 -3.71875 4.257812 -4.582031 4.15625 -5.3125 C 4.0625 -6.050781 4.015625 -7.226562 4.015625 -8.84375 Z M 20.53125 -62.703125 C 20.03125 -61.734375 19.144531 -61.046875 17.875 -60.640625 C 16.601562 -60.242188 14.910156 -60.046875 12.796875 -60.046875 C 10.691406 -60.046875 9.003906 -60.242188 7.734375 -60.640625 C 6.460938 -61.046875 5.570312 -61.75 5.0625 -62.75 C 4.5625 -63.757812 4.257812 -64.648438 4.15625 -65.421875 C 4.0625 -66.191406 4.015625 -67.347656 4.015625 -68.890625 C 4.015625 -70.429688 4.0625 -71.585938 4.15625 -72.359375 C 4.257812 -73.128906 4.546875 -73.984375 5.015625 -74.921875 C 5.953125 -76.722656 8.566406 -77.625 12.859375 -77.625 C 17.078125 -77.625 19.617188 -76.722656 20.484375 -74.921875 C 21.023438 -73.910156 21.34375 -73.019531 21.4375 -72.25 C 21.539062 -71.476562 21.59375 -70.320312 21.59375 -68.78125 C 21.59375 -67.25 21.539062 -66.097656 21.4375 -65.328125 C 21.34375 -64.554688 21.039062 -63.679688 20.53125 -62.703125 Z M 20.53125 -62.703125 "/></g></g></g><g fill="#000000" fill-opacity="1"><g transform="translate(350.770546, 489.978043)"><g><path d="M 33.4375 -52.921875 C 40.132812 -52.921875 45.707031 -50.359375 50.15625 -45.234375 C 54.613281 -40.117188 56.84375 -33.878906 56.84375 -26.515625 L 56.84375 -8.84375 C 56.84375 -7.300781 56.789062 -6.144531 56.6875 -5.375 C 56.582031 -4.601562 56.296875 -3.75 55.828125 -2.8125 C 54.890625 -1 52.28125 -0.09375 48 -0.09375 C 43.25 -0.09375 40.503906 -1.332031 39.765625 -3.8125 C 39.367188 -4.945312 39.171875 -6.65625 39.171875 -8.9375 L 39.171875 -26.609375 C 39.171875 -29.359375 38.378906 -31.5 36.796875 -33.03125 C 35.222656 -34.570312 33.113281 -35.34375 30.46875 -35.34375 C 27.832031 -35.34375 25.691406 -34.539062 24.046875 -32.9375 C 22.410156 -31.332031 21.59375 -29.222656 21.59375 -26.609375 L 21.59375 -8.84375 C 21.59375 -7.300781 21.539062 -6.144531 21.4375 -5.375 C 21.34375 -4.601562 21.023438 -3.75 20.484375 -2.8125 C 19.617188 -1 17.039062 -0.09375 12.75 -0.09375 C 8.53125 -0.09375 5.953125 -1 5.015625 -2.8125 C 4.546875 -3.8125 4.257812 -4.695312 4.15625 -5.46875 C 4.0625 -6.238281 4.015625 -7.394531 4.015625 -8.9375 L 4.015625 -44.484375 C 4.015625 -45.960938 4.0625 -47.082031 4.15625 -47.84375 C 4.257812 -48.613281 4.582031 -49.46875 5.125 -50.40625 C 6.0625 -52.082031 8.640625 -52.921875 12.859375 -52.921875 C 16.941406 -52.921875 19.453125 -52.148438 20.390625 -50.609375 C 21.054688 -49.472656 21.390625 -48.101562 21.390625 -46.5 C 21.660156 -46.96875 22.265625 -47.632812 23.203125 -48.5 C 24.140625 -49.375 25.039062 -50.078125 25.90625 -50.609375 C 28.1875 -52.148438 30.695312 -52.921875 33.4375 -52.921875 Z M 33.4375 -52.921875 "/></g></g></g><g fill="#000000" fill-opacity="1"><g transform="translate(410.616596, 489.978043)"><g><path d="M 34.75 -35.140625 L 28.21875 -35.546875 L 28.21875 -21.6875 C 28.21875 -19.882812 28.5 -18.578125 29.0625 -17.765625 C 29.632812 -16.960938 30.707031 -16.5625 32.28125 -16.5625 C 33.851562 -16.5625 35.054688 -16.507812 35.890625 -16.40625 C 36.734375 -16.3125 37.625 -16 38.5625 -15.46875 C 40.101562 -14.59375 40.875 -12.347656 40.875 -8.734375 C 40.875 -4.515625 39.9375 -1.9375 38.0625 -1 C 37.050781 -0.53125 36.160156 -0.242188 35.390625 -0.140625 C 34.628906 -0.046875 33.507812 0 32.03125 0 C 25.070312 0 19.785156 -1.570312 16.171875 -4.71875 C 12.554688 -7.863281 10.75 -13.1875 10.75 -20.6875 L 10.75 -35.546875 C 9.476562 -35.347656 8.101562 -35.25 6.625 -35.25 C 5.15625 -35.25 3.929688 -35.816406 2.953125 -36.953125 C 1.984375 -38.085938 1.5 -40.023438 1.5 -42.765625 C 1.5 -45.515625 1.664062 -47.507812 2 -48.75 C 2.34375 -49.988281 2.816406 -50.878906 3.421875 -51.421875 C 4.484375 -52.285156 5.820312 -52.71875 7.4375 -52.71875 L 10.75 -52.3125 L 10.75 -62.65625 C 10.75 -64.195312 10.796875 -65.335938 10.890625 -66.078125 C 10.992188 -66.816406 11.3125 -67.617188 11.84375 -68.484375 C 12.71875 -70.160156 15.296875 -71 19.578125 -71 C 24.128906 -71 26.84375 -69.757812 27.71875 -67.28125 C 28.050781 -66.207031 28.21875 -64.5 28.21875 -62.15625 L 28.21875 -52.3125 C 31.164062 -52.582031 33.390625 -52.71875 34.890625 -52.71875 C 36.398438 -52.71875 37.539062 -52.664062 38.3125 -52.5625 C 39.082031 -52.46875 39.96875 -52.148438 40.96875 -51.609375 C 42.707031 -50.742188 43.578125 -48.171875 43.578125 -43.890625 C 43.578125 -39.671875 42.675781 -37.09375 40.875 -36.15625 C 39.863281 -35.6875 38.972656 -35.398438 38.203125 -35.296875 C 37.441406 -35.191406 36.289062 -35.140625 34.75 -35.140625 Z M 34.75 -35.140625 "/></g></g></g><g fill="#000000" fill-opacity="1"><g transform="translate(453.693654, 489.978043)"><g><path d="M 55.03125 -32.78125 C 55.03125 -28.664062 54.007812 -25.617188 51.96875 -23.640625 C 49.925781 -21.671875 47.664062 -20.6875 45.1875 -20.6875 L 21.390625 -20.6875 C 21.390625 -18.8125 22.492188 -17.238281 24.703125 -15.96875 C 26.910156 -14.695312 29.117188 -14.0625 31.328125 -14.0625 C 35.210938 -14.0625 38.257812 -14.460938 40.46875 -15.265625 L 41.578125 -15.671875 C 43.179688 -16.398438 44.519531 -16.765625 45.59375 -16.765625 C 47.738281 -16.765625 49.578125 -15.257812 51.109375 -12.25 C 51.984375 -10.445312 52.421875 -8.90625 52.421875 -7.625 C 52.421875 -1.664062 45.289062 1.3125 31.03125 1.3125 C 26.070312 1.3125 21.664062 0.457031 17.8125 -1.25 C 13.96875 -2.957031 10.976562 -5.21875 8.84375 -8.03125 C 4.625 -13.457031 2.515625 -19.515625 2.515625 -26.203125 C 2.515625 -34.640625 5.238281 -41.382812 10.6875 -46.4375 C 16.144531 -51.5 22.957031 -54.03125 31.125 -54.03125 C 40.4375 -54.03125 47.265625 -50.75 51.609375 -44.1875 C 53.890625 -40.707031 55.03125 -36.90625 55.03125 -32.78125 Z M 33.84375 -29.828125 C 36.382812 -29.828125 37.65625 -30.894531 37.65625 -33.03125 C 37.65625 -34.570312 37.066406 -35.8125 35.890625 -36.75 C 34.722656 -37.6875 33.050781 -38.15625 30.875 -38.15625 C 28.695312 -38.15625 26.535156 -37.269531 24.390625 -35.5 C 22.253906 -33.726562 21.1875 -31.835938 21.1875 -29.828125 Z M 33.84375 -29.828125 "/></g></g></g><g fill="#000000" fill-opacity="1"><g transform="translate(511.230252, 489.978043)"><g><path d="M 39.96875 -52.3125 C 41.238281 -51.914062 42.289062 -51.234375 43.125 -50.265625 C 43.96875 -49.296875 44.390625 -47.738281 44.390625 -45.59375 C 44.390625 -43.445312 43.753906 -41.101562 42.484375 -38.5625 C 41.210938 -36.019531 39.367188 -34.75 36.953125 -34.75 C 35.742188 -34.75 34.585938 -35.015625 33.484375 -35.546875 C 32.378906 -36.085938 30.921875 -36.359375 29.109375 -36.359375 C 27.304688 -36.359375 25.617188 -35.71875 24.046875 -34.4375 C 22.472656 -33.164062 21.6875 -31.628906 21.6875 -29.828125 L 21.6875 -8.734375 C 21.6875 -7.191406 21.632812 -6.035156 21.53125 -5.265625 C 21.4375 -4.503906 21.125 -3.617188 20.59375 -2.609375 C 19.582031 -0.867188 16.96875 0 12.75 0 C 9.539062 0 7.234375 -0.566406 5.828125 -1.703125 C 4.753906 -2.640625 4.148438 -4.082031 4.015625 -6.03125 C 4.015625 -6.695312 4.015625 -7.664062 4.015625 -8.9375 L 4.015625 -44.1875 C 4.015625 -45.726562 4.0625 -46.882812 4.15625 -47.65625 C 4.257812 -48.425781 4.546875 -49.28125 5.015625 -50.21875 C 5.953125 -52.019531 8.566406 -52.921875 12.859375 -52.921875 C 16.867188 -52.921875 19.378906 -52.148438 20.390625 -50.609375 C 21.117188 -49.535156 21.484375 -48.429688 21.484375 -47.296875 C 21.828125 -47.765625 22.316406 -48.332031 22.953125 -49 C 23.585938 -49.675781 24.941406 -50.582031 27.015625 -51.71875 C 29.085938 -52.851562 30.910156 -53.421875 32.484375 -53.421875 C 34.054688 -53.421875 35.378906 -53.335938 36.453125 -53.171875 C 37.523438 -53.003906 38.695312 -52.71875 39.96875 -52.3125 Z M 39.96875 -52.3125 "/></g></g></g><g fill="#000000" fill-opacity="1"><g transform="translate(557.118954, 489.978043)"><g><path d="M 17.375 -33.640625 L 17.46875 -34.4375 C 17.46875 -37.320312 18.285156 -39.597656 19.921875 -41.265625 C 21.566406 -42.941406 23.359375 -44.046875 25.296875 -44.578125 C 27.242188 -45.117188 29.035156 -46.023438 30.671875 -47.296875 C 32.316406 -48.566406 33.140625 -50.289062 33.140625 -52.46875 C 33.140625 -54.644531 32.519531 -56.332031 31.28125 -57.53125 C 30.039062 -58.738281 28.179688 -59.34375 25.703125 -59.34375 C 23.234375 -59.34375 21.410156 -58.957031 20.234375 -58.1875 C 19.066406 -57.425781 18.347656 -56.640625 18.078125 -55.828125 L 17.78125 -54.625 C 17.175781 -52.882812 16.46875 -51.5625 15.65625 -50.65625 C 14.851562 -49.757812 13.816406 -49.3125 12.546875 -49.3125 C 11.273438 -49.3125 9.601562 -49.710938 7.53125 -50.515625 C 3.507812 -52.054688 1.5 -53.960938 1.5 -56.234375 C 1.5 -57.242188 1.703125 -58.265625 2.109375 -59.296875 C 2.515625 -60.335938 2.847656 -61.207031 3.109375 -61.90625 C 3.378906 -62.613281 4.097656 -63.835938 5.265625 -65.578125 C 6.441406 -67.316406 7.78125 -68.835938 9.28125 -70.140625 C 10.789062 -71.453125 12.914062 -72.660156 15.65625 -73.765625 C 18.40625 -74.867188 21.453125 -75.421875 24.796875 -75.421875 C 31.898438 -75.421875 37.691406 -73.144531 42.171875 -68.59375 C 46.660156 -64.039062 48.90625 -58.75 48.90625 -52.71875 C 48.90625 -49.84375 48.382812 -47.179688 47.34375 -44.734375 C 46.3125 -42.296875 45.054688 -40.375 43.578125 -38.96875 C 40.640625 -36.15625 37.894531 -34.28125 35.34375 -33.34375 L 33.734375 -32.84375 C 33.734375 -31.695312 33.679688 -30.820312 33.578125 -30.21875 C 33.484375 -29.625 33.1875 -28.972656 32.6875 -28.265625 C 32.1875 -27.566406 31.347656 -27.066406 30.171875 -26.765625 C 29.003906 -26.460938 27.445312 -26.3125 25.5 -26.3125 C 23.5625 -26.3125 22.003906 -26.476562 20.828125 -26.8125 C 19.660156 -27.144531 18.84375 -27.710938 18.375 -28.515625 C 17.90625 -29.316406 17.617188 -30.035156 17.515625 -30.671875 C 17.421875 -31.316406 17.375 -32.304688 17.375 -33.640625 Z M 16.96875 -15.703125 C 17.507812 -16.742188 18.460938 -17.5 19.828125 -17.96875 C 21.203125 -18.4375 23.363281 -18.671875 26.3125 -18.671875 C 29.257812 -18.671875 31.382812 -18.019531 32.6875 -16.71875 C 33.988281 -15.414062 34.640625 -12.890625 34.640625 -9.140625 C 34.640625 -6.460938 34.304688 -4.46875 33.640625 -3.15625 C 32.972656 -1.851562 31.953125 -0.984375 30.578125 -0.546875 C 29.203125 -0.117188 27.078125 0.09375 24.203125 0.09375 C 21.328125 0.09375 19.117188 -0.609375 17.578125 -2.015625 C 16.429688 -3.148438 15.859375 -5.085938 15.859375 -7.828125 L 15.859375 -9.4375 C 15.859375 -10.976562 15.910156 -12.148438 16.015625 -12.953125 C 16.117188 -13.753906 16.4375 -14.671875 16.96875 -15.703125 Z M 16.96875 -15.703125 "/></g></g></g><g clip-path="url(#732857ae2d)"><path fill="#000000" d="M 299.800781 604.535156 C 299.355469 597.339844 298.394531 590.417969 297.210938 583.441406 C 296.304688 585.277344 295.4375 587.039062 294.605469 588.726562 C 278.628906 621.164062 275.304688 627.914062 258.242188 668.085938 L 255.574219 674.363281 L 243 669.039062 L 245.667969 662.761719 C 262.878906 622.238281 266.234375 615.429688 282.347656 582.710938 C 283.566406 580.242188 284.855469 577.621094 286.230469 574.832031 C 279.820312 578.695312 273.679688 582.796875 265.015625 589.5 L 259.621094 593.675781 L 251.25 582.898438 L 256.648438 578.722656 C 270.410156 568.070312 278.476562 563.449219 289.644531 557.054688 C 291.753906 555.847656 293.933594 554.601562 296.308594 553.222656 L 304.792969 548.300781 L 306.46875 557.953125 C 307.101562 561.617188 307.785156 565.285156 308.449219 568.832031 C 310.53125 579.996094 312.683594 591.542969 313.433594 603.695312 L 313.855469 610.5 L 300.222656 611.339844 Z M 299.800781 604.535156 " fill-opacity="1" fill-rule="nonzero"/></g><g clip-path="url(#659b30f873)"><path fill="#000000" d="M 415.152344 629.421875 C 413.34375 627.09375 411.859375 625.167969 410.546875 623.46875 C 407.316406 619.273438 405.214844 616.550781 402.148438 612.855469 C 407.238281 648.613281 412.066406 684.757812 416.519531 720.488281 L 417.363281 727.253906 L 403.808594 728.9375 L 402.964844 722.171875 C 398.484375 686.226562 393.625 649.863281 388.5 613.898438 C 385.964844 618.371094 383.46875 622.855469 381.03125 627.335938 L 377.769531 633.324219 L 365.769531 626.8125 L 369.03125 620.820312 C 374.90625 610.035156 381.089844 599.210938 387.410156 588.652344 L 392.21875 580.621094 L 398.402344 587.652344 C 412.726562 603.9375 414.730469 606.535156 421.371094 615.148438 C 422.675781 616.839844 424.152344 618.757812 425.945312 621.0625 L 430.128906 626.449219 L 419.335938 634.808594 Z M 415.152344 629.421875 " fill-opacity="1" fill-rule="nonzero"/></g><path fill="#000000" d="M 562.777344 650.300781 L 567 655.664062 L 556.261719 664.09375 L 552.042969 658.734375 C 540.800781 644.460938 528.054688 629.988281 515.726562 615.996094 C 506.703125 605.753906 497.457031 595.257812 488.6875 584.710938 L 491.390625 608.503906 L 477.820312 610.042969 L 471.199219 551.8125 L 481.167969 554.871094 C 484.457031 555.882812 487.46875 556.78125 490.375 557.648438 C 500.710938 560.738281 509.636719 563.40625 522.421875 568.496094 L 528.761719 571.023438 L 523.703125 583.6875 L 517.359375 581.164062 C 509.734375 578.125 503.660156 576.027344 497.632812 574.117188 C 506.746094 585.152344 516.488281 596.210938 525.980469 606.988281 C 538.433594 621.121094 551.304688 635.738281 562.777344 650.300781 Z M 562.777344 650.300781 " fill-opacity="1" fill-rule="nonzero"/></svg>