<svg xmlns="http://www.w3.org/2000/svg" xmlns:xlink="http://www.w3.org/1999/xlink" width="1080" zoomAndPan="magnify" viewBox="0 0 810 809.999993" height="1080" preserveAspectRatio="xMidYMid meet" version="1.0"><defs><filter x="0%" y="0%" width="100%" height="100%" id="7df4740d41"><feColorMatrix values="0 0 0 0 1 0 0 0 0 1 0 0 0 0 1 0 0 0 1 0" color-interpolation-filters="sRGB"/></filter><g/><mask id="99491f0c30"><g filter="url(#7df4740d41)"><rect x="-81" width="972" fill="#000000" y="-80.999999" height="971.999992" fill-opacity="0.25"/></g></mask><clipPath id="168f666573"><path d="M 0.59375 0.765625 L 438 0.765625 L 438 261.234375 L 0.59375 261.234375 Z M 0.59375 0.765625 " clip-rule="nonzero"/></clipPath><clipPath id="e80a00afc4"><path d="M 38.84375 0.765625 L 399.449219 0.765625 C 409.59375 0.765625 419.324219 4.792969 426.496094 11.96875 C 433.671875 19.140625 437.699219 28.871094 437.699219 39.015625 L 437.699219 222.984375 C 437.699219 233.128906 433.671875 242.859375 426.496094 250.03125 C 419.324219 257.207031 409.59375 261.234375 399.449219 261.234375 L 38.84375 261.234375 C 28.699219 261.234375 18.96875 257.207031 11.796875 250.03125 C 4.621094 242.859375 0.59375 233.128906 0.59375 222.984375 L 0.59375 39.015625 C 0.59375 28.871094 4.621094 19.140625 11.796875 11.96875 C 18.96875 4.792969 28.699219 0.765625 38.84375 0.765625 Z M 38.84375 0.765625 " clip-rule="nonzero"/></clipPath><clipPath id="4890157507"><rect x="0" width="439" y="0" height="262"/></clipPath></defs><rect x="-81" width="972" fill="#ffffff" y="-80.999999" height="971.999992" fill-opacity="1"/><rect x="-81" width="972" fill="#e6ba2d" y="-80.999999" height="971.999992" fill-opacity="1"/><path fill="#0ca2ee" d="M 552.644531 336.007812 L 715.589844 240.34375 C 727.933594 233.214844 727.480469 215.4375 715.589844 208.644531 L 552.644531 113.097656 C 540.414062 105.851562 525.011719 114.683594 525.011719 128.945312 L 525.011719 173.550781 L 338.511719 173.550781 C 213.949219 173.5625 112.601562 274.886719 112.601562 399.417969 L 112.601562 509.003906 L 214.515625 449.117188 L 214.515625 399.417969 C 214.515625 331.039062 270.117188 275.453125 338.511719 275.453125 L 525.011719 275.453125 L 525.011719 320.167969 C 525.011719 334.320312 540.414062 343.152344 552.644531 336.019531 Z M 552.644531 336.007812 " fill-opacity="1" fill-rule="nonzero"/><path fill="#1e3a7b" d="M 239.882812 473.683594 L 76.933594 569.34375 C 64.589844 576.476562 65.042969 594.25 76.933594 601.042969 L 239.882812 696.59375 C 252.109375 703.839844 267.511719 695.007812 267.511719 680.746094 L 267.511719 636.140625 L 454.011719 636.140625 C 578.574219 636.140625 679.921875 534.816406 679.921875 410.285156 L 679.921875 300.699219 L 578.007812 360.585938 L 578.007812 410.285156 C 578.007812 478.664062 522.410156 534.25 454.011719 534.25 L 267.511719 534.25 L 267.511719 489.53125 C 267.511719 475.382812 252.109375 466.550781 239.882812 473.683594 Z M 239.882812 473.683594 " fill-opacity="1" fill-rule="nonzero"/><g mask="url(#99491f0c30)"><g transform="matrix(1, 0, 0, 1, 181, 274)"><g clip-path="url(#4890157507)"><g clip-path="url(#168f666573)"><g clip-path="url(#e80a00afc4)"><path fill="#d0d0d0" d="M 0.59375 0.765625 L 438.105469 0.765625 L 438.105469 261.234375 L 0.59375 261.234375 Z M 0.59375 0.765625 " fill-opacity="1" fill-rule="nonzero"/></g></g></g></g></g><g fill="#000000" fill-opacity="1"><g transform="translate(191.313791, 371.107357)"><g><path d="M 5.125 -10.34375 C 3.382812 -12.488281 2.515625 -14.410156 2.515625 -16.109375 C 2.515625 -17.816406 3.953125 -20.078125 6.828125 -22.890625 C 8.503906 -24.503906 10.28125 -25.3125 12.15625 -25.3125 C 14.03125 -25.3125 16.640625 -23.632812 19.984375 -20.28125 C 20.921875 -19.144531 22.257812 -18.054688 24 -17.015625 C 25.738281 -15.984375 27.347656 -15.46875 28.828125 -15.46875 C 35.046875 -15.46875 38.15625 -18.007812 38.15625 -23.09375 C 38.15625 -24.632812 37.300781 -25.921875 35.59375 -26.953125 C 33.882812 -27.992188 31.757812 -28.75 29.21875 -29.21875 C 26.675781 -29.6875 23.929688 -30.4375 20.984375 -31.46875 C 18.035156 -32.507812 15.289062 -33.734375 12.75 -35.140625 C 10.207031 -36.546875 8.082031 -38.769531 6.375 -41.8125 C 4.664062 -44.863281 3.8125 -48.535156 3.8125 -52.828125 C 3.8125 -58.710938 6.003906 -63.847656 10.390625 -68.234375 C 14.773438 -72.617188 20.75 -74.8125 28.3125 -74.8125 C 32.332031 -74.8125 36 -74.289062 39.3125 -73.25 C 42.625 -72.21875 44.914062 -71.164062 46.1875 -70.09375 L 48.703125 -68.1875 C 50.773438 -66.25 51.8125 -64.609375 51.8125 -63.265625 C 51.8125 -61.921875 51.007812 -60.082031 49.40625 -57.75 C 47.132812 -54.394531 44.789062 -52.71875 42.375 -52.71875 C 40.96875 -52.71875 39.226562 -53.390625 37.15625 -54.734375 C 36.957031 -54.867188 36.570312 -55.203125 36 -55.734375 C 35.425781 -56.265625 34.90625 -56.703125 34.4375 -57.046875 C 33.03125 -57.910156 31.238281 -58.34375 29.0625 -58.34375 C 26.894531 -58.34375 25.085938 -57.820312 23.640625 -56.78125 C 22.203125 -55.75 21.484375 -54.3125 21.484375 -52.46875 C 21.484375 -50.625 22.335938 -49.132812 24.046875 -48 C 25.753906 -46.863281 27.878906 -46.09375 30.421875 -45.6875 C 32.972656 -45.289062 35.753906 -44.671875 38.765625 -43.828125 C 41.773438 -42.992188 44.550781 -41.972656 47.09375 -40.765625 C 49.632812 -39.566406 51.757812 -37.476562 53.46875 -34.5 C 55.175781 -31.519531 56.03125 -27.851562 56.03125 -23.5 C 56.03125 -19.144531 55.160156 -15.3125 53.421875 -12 C 51.679688 -8.6875 49.40625 -6.125 46.59375 -4.3125 C 41.175781 -0.769531 35.382812 1 29.21875 1 C 26.070312 1 23.09375 0.613281 20.28125 -0.15625 C 17.46875 -0.925781 15.191406 -1.878906 13.453125 -3.015625 C 9.910156 -5.148438 7.4375 -7.222656 6.03125 -9.234375 Z M 5.125 -10.34375 "/></g></g></g><g fill="#000000" fill-opacity="1"><g transform="translate(249.854514, 371.107357)"><g><path d="M 71.703125 -52.515625 C 75.984375 -50.640625 78.125 -48.332031 78.125 -45.59375 C 78.125 -44.457031 77.585938 -42.632812 76.515625 -40.125 C 75.453125 -37.613281 74.550781 -35.421875 73.8125 -33.546875 L 62.765625 -6.625 C 61.753906 -3.675781 60.082031 -1.601562 57.75 -0.40625 C 56.738281 0.0625 55.460938 0.296875 53.921875 0.296875 C 52.378906 0.296875 50.890625 -0.285156 49.453125 -1.453125 C 48.015625 -2.628906 47.0625 -3.816406 46.59375 -5.015625 L 45.796875 -6.734375 C 45.253906 -8.066406 43.28125 -13.285156 39.875 -22.390625 C 39.195312 -20.785156 38.207031 -18.15625 36.90625 -14.5 C 35.601562 -10.851562 34.765625 -8.578125 34.390625 -7.671875 C 34.023438 -6.773438 33.789062 -6.175781 33.6875 -5.875 C 33.59375 -5.570312 33.3125 -5.019531 32.84375 -4.21875 C 32.375 -3.414062 31.835938 -2.710938 31.234375 -2.109375 C 29.628906 -0.503906 27.785156 0.296875 25.703125 0.296875 C 23.628906 0.296875 21.890625 -0.285156 20.484375 -1.453125 C 19.078125 -2.628906 18.140625 -3.816406 17.671875 -5.015625 L 2.515625 -41.96875 C 1.835938 -43.976562 1.5 -45.285156 1.5 -45.890625 C 1.5 -48.566406 3.410156 -50.675781 7.234375 -52.21875 C 9.367188 -53.09375 11.101562 -53.53125 12.4375 -53.53125 C 13.78125 -53.53125 14.867188 -53.242188 15.703125 -52.671875 C 16.546875 -52.097656 17.132812 -51.523438 17.46875 -50.953125 C 17.800781 -50.390625 18.070312 -49.804688 18.28125 -49.203125 C 19.414062 -46.523438 21.789062 -40.234375 25.40625 -30.328125 L 31.328125 -46.59375 C 31.734375 -47.9375 32.472656 -49.109375 33.546875 -50.109375 C 35.484375 -52.046875 37.457031 -53.015625 39.46875 -53.015625 C 41.476562 -53.015625 43.203125 -52.476562 44.640625 -51.40625 C 46.078125 -50.34375 47.0625 -49.273438 47.59375 -48.203125 L 48.40625 -46.5 C 51.75 -37.125 53.722656 -31.765625 54.328125 -30.421875 L 60.453125 -47.09375 C 62.054688 -51.382812 64.46875 -53.53125 67.6875 -53.53125 C 68.957031 -53.53125 70.296875 -53.191406 71.703125 -52.515625 Z M 71.703125 -52.515625 "/></g></g></g><g fill="#000000" fill-opacity="1"><g transform="translate(329.481947, 371.107357)"><g><path d="M 38.359375 -47.296875 C 38.765625 -51.046875 41.410156 -52.921875 46.296875 -52.921875 C 48.910156 -52.921875 50.851562 -52.71875 52.125 -52.3125 C 53.394531 -51.914062 54.28125 -51.210938 54.78125 -50.203125 C 55.28125 -49.203125 55.578125 -48.316406 55.671875 -47.546875 C 55.773438 -46.773438 55.828125 -45.617188 55.828125 -44.078125 L 55.828125 -8.9375 C 55.828125 -7.394531 55.773438 -6.238281 55.671875 -5.46875 C 55.578125 -4.695312 55.296875 -3.8125 54.828125 -2.8125 C 53.890625 -1.070312 51.597656 -0.203125 47.953125 -0.203125 C 44.304688 -0.203125 41.863281 -0.648438 40.625 -1.546875 C 39.382812 -2.453125 38.664062 -3.773438 38.46875 -5.515625 C 35.988281 -1.972656 31.851562 -0.203125 26.0625 -0.203125 C 20.269531 -0.203125 14.894531 -2.84375 9.9375 -8.125 C 4.988281 -13.414062 2.515625 -19.5625 2.515625 -26.5625 C 2.515625 -33.5625 5.003906 -39.6875 9.984375 -44.9375 C 14.972656 -50.195312 20.445312 -52.828125 26.40625 -52.828125 C 28.6875 -52.828125 30.765625 -52.421875 32.640625 -51.609375 C 34.515625 -50.804688 35.816406 -50.050781 36.546875 -49.34375 C 37.285156 -48.644531 37.890625 -47.960938 38.359375 -47.296875 Z M 20.078125 -26.40625 C 20.078125 -24.195312 20.945312 -22.207031 22.6875 -20.4375 C 24.4375 -18.664062 26.546875 -17.78125 29.015625 -17.78125 C 31.492188 -17.78125 33.550781 -18.679688 35.1875 -20.484375 C 36.832031 -22.296875 37.65625 -24.285156 37.65625 -26.453125 C 37.65625 -28.628906 36.867188 -30.65625 35.296875 -32.53125 C 33.722656 -34.40625 31.613281 -35.34375 28.96875 -35.34375 C 26.320312 -35.34375 24.175781 -34.40625 22.53125 -32.53125 C 20.894531 -30.65625 20.078125 -28.613281 20.078125 -26.40625 Z M 20.078125 -26.40625 "/></g></g></g><g fill="#000000" fill-opacity="1"><g transform="translate(389.328041, 371.107357)"><g><path d="M 4.015625 14.359375 L 4.015625 -44.28125 C 4.015625 -45.820312 4.0625 -46.960938 4.15625 -47.703125 C 4.257812 -48.441406 4.546875 -49.28125 5.015625 -50.21875 C 5.953125 -52.019531 8.195312 -52.921875 11.75 -52.921875 C 15.300781 -52.921875 17.691406 -52.46875 18.921875 -51.5625 C 20.160156 -50.664062 20.882812 -49.34375 21.09375 -47.59375 C 23.632812 -51.082031 27.628906 -52.828125 33.078125 -52.828125 C 38.535156 -52.828125 43.707031 -50.25 48.59375 -45.09375 C 53.488281 -39.9375 55.9375 -33.941406 55.9375 -27.109375 C 55.9375 -20.285156 53.507812 -14.296875 48.65625 -9.140625 C 43.800781 -3.984375 38.628906 -1.40625 33.140625 -1.40625 C 27.648438 -1.40625 23.664062 -2.945312 21.1875 -6.03125 L 21.1875 14.265625 C 21.1875 15.796875 21.132812 16.929688 21.03125 17.671875 C 20.9375 18.410156 20.632812 19.265625 20.125 20.234375 C 19.625 21.203125 18.769531 21.882812 17.5625 22.28125 C 16.363281 22.6875 14.726562 22.890625 12.65625 22.890625 C 10.582031 22.890625 8.925781 22.6875 7.6875 22.28125 C 6.445312 21.882812 5.570312 21.21875 5.0625 20.28125 C 4.5625 19.34375 4.257812 18.503906 4.15625 17.765625 C 4.0625 17.035156 4.015625 15.898438 4.015625 14.359375 Z M 23.890625 -32.9375 C 22.359375 -31.132812 21.59375 -29.160156 21.59375 -27.015625 C 21.59375 -24.867188 22.378906 -22.910156 23.953125 -21.140625 C 25.523438 -19.367188 27.53125 -18.484375 29.96875 -18.484375 C 32.414062 -18.484375 34.492188 -19.351562 36.203125 -21.09375 C 37.910156 -22.832031 38.765625 -24.804688 38.765625 -27.015625 C 38.765625 -29.222656 37.957031 -31.210938 36.34375 -32.984375 C 34.738281 -34.765625 32.644531 -35.65625 30.0625 -35.65625 C 27.488281 -35.65625 25.429688 -34.75 23.890625 -32.9375 Z M 23.890625 -32.9375 "/></g></g></g><g fill="#000000" fill-opacity="1"><g transform="translate(447.768348, 371.107357)"><g/></g></g><g fill="#000000" fill-opacity="1"><g transform="translate(473.172804, 371.107357)"><g><path d="M 33.03125 -52.828125 C 38.988281 -52.828125 44.460938 -50.179688 49.453125 -44.890625 C 54.441406 -39.597656 56.9375 -33.453125 56.9375 -26.453125 C 56.9375 -19.460938 54.457031 -13.335938 49.5 -8.078125 C 44.550781 -2.828125 39.226562 -0.203125 33.53125 -0.203125 C 27.84375 -0.203125 23.796875 -1.804688 21.390625 -5.015625 C 20.859375 -1.734375 17.976562 -0.09375 12.75 -0.09375 C 8.53125 -0.09375 5.953125 -1 5.015625 -2.8125 C 4.546875 -3.8125 4.257812 -4.695312 4.15625 -5.46875 C 4.0625 -6.238281 4.015625 -7.394531 4.015625 -8.9375 L 4.015625 -68.890625 C 4.015625 -70.429688 4.0625 -71.585938 4.15625 -72.359375 C 4.257812 -73.128906 4.546875 -73.984375 5.015625 -74.921875 C 5.953125 -76.722656 8.566406 -77.625 12.859375 -77.625 C 17.078125 -77.625 19.617188 -76.722656 20.484375 -74.921875 C 21.023438 -73.910156 21.34375 -73.019531 21.4375 -72.25 C 21.539062 -71.476562 21.59375 -70.320312 21.59375 -68.78125 L 21.59375 -47.90625 C 24.269531 -51.1875 28.082031 -52.828125 33.03125 -52.828125 Z M 24.25 -20.375 C 25.894531 -18.570312 27.953125 -17.671875 30.421875 -17.671875 C 32.898438 -17.671875 35.007812 -18.570312 36.75 -20.375 C 38.488281 -22.1875 39.359375 -24.195312 39.359375 -26.40625 C 39.359375 -28.613281 38.554688 -30.640625 36.953125 -32.484375 C 35.347656 -34.328125 33.207031 -35.25 30.53125 -35.25 C 27.851562 -35.25 25.726562 -34.3125 24.15625 -32.4375 C 22.582031 -30.5625 21.796875 -28.535156 21.796875 -26.359375 C 21.796875 -24.179688 22.613281 -22.1875 24.25 -20.375 Z M 24.25 -20.375 "/></g></g></g><g fill="#000000" fill-opacity="1"><g transform="translate(532.617235, 371.107357)"><g><path d="M 53.21875 -52.3125 C 57.175781 -50.570312 59.15625 -48.46875 59.15625 -46 C 59.15625 -44.789062 58.882812 -43.648438 58.34375 -42.578125 C 57.8125 -41.503906 57.546875 -40.9375 57.546875 -40.875 L 31.234375 17.96875 C 30.691406 19.25 30.238281 20.222656 29.875 20.890625 C 29.507812 21.554688 28.921875 22.191406 28.109375 22.796875 C 27.304688 23.398438 26.300781 23.703125 25.09375 23.703125 C 23.894531 23.703125 22.125 23.195312 19.78125 22.1875 C 15.832031 20.445312 13.859375 18.375 13.859375 15.96875 C 13.859375 14.363281 17.070312 6.695312 23.5 -7.03125 L 3.515625 -40.671875 C 2.171875 -42.878906 1.5 -44.519531 1.5 -45.59375 C 1.5 -47.738281 3.304688 -49.878906 6.921875 -52.015625 C 9.203125 -53.359375 10.976562 -54.03125 12.25 -54.03125 C 13.519531 -54.03125 14.554688 -53.757812 15.359375 -53.21875 C 16.160156 -52.6875 16.742188 -52.132812 17.109375 -51.5625 C 17.484375 -51 19.328125 -47.882812 22.640625 -42.21875 C 25.953125 -36.5625 29.117188 -31.289062 32.140625 -26.40625 C 32.472656 -27.476562 34.28125 -31.613281 37.5625 -38.8125 C 40.84375 -46.007812 42.597656 -49.84375 42.828125 -50.3125 C 43.066406 -50.78125 43.453125 -51.347656 43.984375 -52.015625 C 44.859375 -53.148438 46.082031 -53.71875 47.65625 -53.71875 C 49.226562 -53.71875 51.082031 -53.25 53.21875 -52.3125 Z M 53.21875 -52.3125 "/></g></g></g><g fill="#000000" fill-opacity="1"><g transform="translate(593.274064, 371.107357)"><g/></g></g><g fill="#000000" fill-opacity="1"><g transform="translate(260.143512, 511.38524)"><g><path d="M 71.203125 -72.5 C 75.148438 -70.5625 77.125 -68.421875 77.125 -66.078125 C 77.125 -65.003906 76.625 -63.394531 75.625 -61.25 L 47.90625 -5.015625 C 47.164062 -3.546875 46.039062 -2.359375 44.53125 -1.453125 C 43.03125 -0.546875 41.476562 -0.09375 39.875 -0.09375 L 38.859375 -0.09375 C 37.191406 -0.09375 35.601562 -0.546875 34.09375 -1.453125 C 32.582031 -2.359375 31.460938 -3.546875 30.734375 -5.015625 L 3.015625 -61.25 C 2.003906 -63.394531 1.5 -65.003906 1.5 -66.078125 C 1.5 -68.421875 3.476562 -70.5625 7.4375 -72.5 C 9.644531 -73.644531 11.332031 -74.21875 12.5 -74.21875 C 13.675781 -74.21875 14.5625 -74.082031 15.15625 -73.8125 C 15.757812 -73.539062 16.332031 -73.070312 16.875 -72.40625 C 17.476562 -71.601562 18.03125 -70.710938 18.53125 -69.734375 C 19.03125 -68.765625 20.316406 -65.988281 22.390625 -61.40625 C 24.460938 -56.820312 26.6875 -51.953125 29.0625 -46.796875 C 31.445312 -41.640625 33.691406 -36.769531 35.796875 -32.1875 C 37.910156 -27.601562 39.097656 -25.039062 39.359375 -24.5 L 59.453125 -68.484375 C 59.984375 -69.753906 60.453125 -70.757812 60.859375 -71.5 C 62.054688 -73.3125 63.523438 -74.21875 65.265625 -74.21875 C 67.015625 -74.21875 68.992188 -73.644531 71.203125 -72.5 Z M 71.203125 -72.5 "/></g></g></g><g fill="#000000" fill-opacity="1"><g transform="translate(338.766806, 511.38524)"><g><path d="M 38.359375 -47.296875 C 38.765625 -51.046875 41.410156 -52.921875 46.296875 -52.921875 C 48.910156 -52.921875 50.851562 -52.71875 52.125 -52.3125 C 53.394531 -51.914062 54.28125 -51.210938 54.78125 -50.203125 C 55.28125 -49.203125 55.578125 -48.316406 55.671875 -47.546875 C 55.773438 -46.773438 55.828125 -45.617188 55.828125 -44.078125 L 55.828125 -8.9375 C 55.828125 -7.394531 55.773438 -6.238281 55.671875 -5.46875 C 55.578125 -4.695312 55.296875 -3.8125 54.828125 -2.8125 C 53.890625 -1.070312 51.597656 -0.203125 47.953125 -0.203125 C 44.304688 -0.203125 41.863281 -0.648438 40.625 -1.546875 C 39.382812 -2.453125 38.664062 -3.773438 38.46875 -5.515625 C 35.988281 -1.972656 31.851562 -0.203125 26.0625 -0.203125 C 20.269531 -0.203125 14.894531 -2.84375 9.9375 -8.125 C 4.988281 -13.414062 2.515625 -19.5625 2.515625 -26.5625 C 2.515625 -33.5625 5.003906 -39.6875 9.984375 -44.9375 C 14.972656 -50.195312 20.445312 -52.828125 26.40625 -52.828125 C 28.6875 -52.828125 30.765625 -52.421875 32.640625 -51.609375 C 34.515625 -50.804688 35.816406 -50.050781 36.546875 -49.34375 C 37.285156 -48.644531 37.890625 -47.960938 38.359375 -47.296875 Z M 20.078125 -26.40625 C 20.078125 -24.195312 20.945312 -22.207031 22.6875 -20.4375 C 24.4375 -18.664062 26.546875 -17.78125 29.015625 -17.78125 C 31.492188 -17.78125 33.550781 -18.679688 35.1875 -20.484375 C 36.832031 -22.296875 37.65625 -24.285156 37.65625 -26.453125 C 37.65625 -28.628906 36.867188 -30.65625 35.296875 -32.53125 C 33.722656 -34.40625 31.613281 -35.34375 28.96875 -35.34375 C 26.320312 -35.34375 24.175781 -34.40625 22.53125 -32.53125 C 20.894531 -30.65625 20.078125 -28.613281 20.078125 -26.40625 Z M 20.078125 -26.40625 "/></g></g></g><g fill="#000000" fill-opacity="1"><g transform="translate(398.612899, 511.38524)"><g><path d="M 4.015625 -68.984375 C 4.015625 -70.523438 4.0625 -71.679688 4.15625 -72.453125 C 4.257812 -73.222656 4.546875 -74.109375 5.015625 -75.109375 C 5.953125 -76.921875 8.566406 -77.828125 12.859375 -77.828125 C 16.941406 -77.828125 19.484375 -76.921875 20.484375 -75.109375 C 21.023438 -74.109375 21.34375 -73.207031 21.4375 -72.40625 C 21.539062 -71.601562 21.59375 -70.429688 21.59375 -68.890625 L 21.59375 -22.390625 C 21.59375 -19.984375 21.789062 -18.460938 22.1875 -17.828125 C 22.59375 -17.191406 23.476562 -16.875 24.84375 -16.875 C 26.21875 -16.875 27.140625 -16.820312 27.609375 -16.71875 C 28.078125 -16.613281 28.648438 -16.328125 29.328125 -15.859375 C 30.660156 -14.992188 31.328125 -12.617188 31.328125 -8.734375 C 31.328125 -4.515625 30.660156 -1.9375 29.328125 -1 C 27.585938 0.195312 23.4375 0.394531 16.875 -0.40625 C 11.71875 -1.070312 8.367188 -2.773438 6.828125 -5.515625 C 4.953125 -8.796875 4.015625 -14.019531 4.015625 -21.1875 Z M 4.015625 -68.984375 "/></g></g></g><g fill="#000000" fill-opacity="1"><g transform="translate(431.447919, 511.38524)"><g><path d="M 27.515625 -0.203125 C 20.753906 -0.203125 15.144531 -2.757812 10.6875 -7.875 C 6.238281 -13 4.015625 -19.242188 4.015625 -26.609375 L 4.015625 -44.1875 C 4.015625 -45.789062 4.0625 -46.960938 4.15625 -47.703125 C 4.257812 -48.441406 4.546875 -49.3125 5.015625 -50.3125 C 5.953125 -52.113281 8.566406 -53.015625 12.859375 -53.015625 C 17.546875 -53.015625 20.289062 -51.742188 21.09375 -49.203125 C 21.488281 -48.128906 21.6875 -46.421875 21.6875 -44.078125 L 21.6875 -26.515625 C 21.6875 -23.765625 22.472656 -21.617188 24.046875 -20.078125 C 25.617188 -18.546875 27.726562 -17.78125 30.375 -17.78125 C 33.019531 -17.78125 35.160156 -18.582031 36.796875 -20.1875 C 38.441406 -21.789062 39.265625 -23.898438 39.265625 -26.515625 L 39.265625 -44.28125 C 39.265625 -45.820312 39.3125 -46.976562 39.40625 -47.75 C 39.507812 -48.519531 39.832031 -49.40625 40.375 -50.40625 C 41.238281 -52.144531 43.816406 -53.015625 48.109375 -53.015625 C 52.316406 -53.015625 54.890625 -52.113281 55.828125 -50.3125 C 56.296875 -49.3125 56.582031 -48.425781 56.6875 -47.65625 C 56.789062 -46.882812 56.84375 -45.726562 56.84375 -44.1875 L 56.84375 -8.640625 C 56.84375 -7.160156 56.789062 -6.035156 56.6875 -5.265625 C 56.582031 -4.503906 56.265625 -3.65625 55.734375 -2.71875 C 54.734375 -0.96875 52.15625 -0.09375 48 -0.09375 C 43.914062 -0.09375 41.40625 -0.898438 40.46875 -2.515625 C 39.800781 -3.648438 39.46875 -5.019531 39.46875 -6.625 C 39.195312 -6.15625 38.59375 -5.484375 37.65625 -4.609375 C 36.71875 -3.742188 35.816406 -3.007812 34.953125 -2.40625 C 32.671875 -0.9375 30.191406 -0.203125 27.515625 -0.203125 Z M 27.515625 -0.203125 "/></g></g></g><g fill="#000000" fill-opacity="1"><g transform="translate(492.298138, 511.38524)"><g><path d="M 55.03125 -32.78125 C 55.03125 -28.664062 54.007812 -25.617188 51.96875 -23.640625 C 49.925781 -21.671875 47.664062 -20.6875 45.1875 -20.6875 L 21.390625 -20.6875 C 21.390625 -18.8125 22.492188 -17.238281 24.703125 -15.96875 C 26.910156 -14.695312 29.117188 -14.0625 31.328125 -14.0625 C 35.210938 -14.0625 38.257812 -14.460938 40.46875 -15.265625 L 41.578125 -15.671875 C 43.179688 -16.398438 44.519531 -16.765625 45.59375 -16.765625 C 47.738281 -16.765625 49.578125 -15.257812 51.109375 -12.25 C 51.984375 -10.445312 52.421875 -8.90625 52.421875 -7.625 C 52.421875 -1.664062 45.289062 1.3125 31.03125 1.3125 C 26.070312 1.3125 21.664062 0.457031 17.8125 -1.25 C 13.96875 -2.957031 10.976562 -5.21875 8.84375 -8.03125 C 4.625 -13.457031 2.515625 -19.515625 2.515625 -26.203125 C 2.515625 -34.640625 5.238281 -41.382812 10.6875 -46.4375 C 16.144531 -51.5 22.957031 -54.03125 31.125 -54.03125 C 40.4375 -54.03125 47.265625 -50.75 51.609375 -44.1875 C 53.890625 -40.707031 55.03125 -36.90625 55.03125 -32.78125 Z M 33.84375 -29.828125 C 36.382812 -29.828125 37.65625 -30.894531 37.65625 -33.03125 C 37.65625 -34.570312 37.066406 -35.8125 35.890625 -36.75 C 34.722656 -37.6875 33.050781 -38.15625 30.875 -38.15625 C 28.695312 -38.15625 26.535156 -37.269531 24.390625 -35.5 C 22.253906 -33.726562 21.1875 -31.835938 21.1875 -29.828125 Z M 33.84375 -29.828125 "/></g></g></g></svg>