<svg xmlns="http://www.w3.org/2000/svg" xmlns:xlink="http://www.w3.org/1999/xlink" width="1080" zoomAndPan="magnify" viewBox="0 0 810 809.999993" height="1080" preserveAspectRatio="xMidYMid meet" version="1.0"><defs><g/><clipPath id="a9c727cae6"><path d="M 242.351562 190 L 431 190 L 431 332 L 242.351562 332 Z M 242.351562 190 " clip-rule="nonzero"/></clipPath></defs><rect x="-81" width="972" fill="#ffffff" y="-80.999999" height="971.999992" fill-opacity="1"/><rect x="-81" width="972" fill="#e64c8c" y="-80.999999" height="971.999992" fill-opacity="1"/><path stroke-linecap="butt" transform="matrix(1.374642, 4.022406, -4.023249, 1.374354, 2272.762401, -2952.766703)" fill-opacity="1" fill="#ffffff" fill-rule="nonzero" stroke-linejoin="miter" d="M 567.829817 651.89008 L 560.051507 650.248981 L 554.621552 656.358155 L 553.779096 648.452475 L 546.290454 645.176287 L 553.54882 641.932717 L 554.349972 633.798288 L 559.678542 639.698729 L 567.662215 637.947697 L 563.697783 644.838198 Z M 567.829817 651.89008 " stroke="#000000" stroke-width="2.386" stroke-opacity="1" stroke-miterlimit="4"/><g clip-path="url(#a9c727cae6)"><path fill="#000000" d="M 425.867188 190.160156 C 428.996094 192.207031 429.152344 192.097656 430.648438 194.171875 L 254.546875 331.773438 C 254.164062 332.054688 253.628906 331.976562 253.347656 331.59375 L 242.683594 317.203125 C 242.402344 316.820312 242.480469 316.285156 242.863281 316.003906 C 268.523438 301.113281 424.644531 191.214844 425.867188 190.160156 L 425.863281 190.160156 Z M 425.867188 190.160156 " fill-opacity="1" fill-rule="nonzero"/></g><path fill="#000000" d="M 393.578125 145.085938 L 361.796875 125.957031 L 356.726562 136.484375 Z M 393.578125 145.085938 " fill-opacity="1" fill-rule="nonzero"/><path fill="#000000" d="M 454.769531 96.207031 L 464.519531 60.421875 L 453.007812 58.414062 L 454.769531 96.203125 Z M 454.769531 96.207031 " fill-opacity="1" fill-rule="nonzero"/><path fill="#000000" d="M 526.382812 188.925781 L 558.164062 208.050781 L 563.234375 197.523438 Z M 526.382812 188.925781 " fill-opacity="1" fill-rule="nonzero"/><path fill="#000000" d="M 465.226562 237.847656 L 455.476562 273.632812 L 466.988281 275.640625 L 465.226562 237.851562 Z M 465.226562 237.847656 " fill-opacity="1" fill-rule="nonzero"/><path fill="#000000" d="M 512.09375 127.128906 L 544.511719 109.101562 L 537.90625 99.460938 Z M 512.09375 127.128906 " fill-opacity="1" fill-rule="nonzero"/><g fill="#000000" fill-opacity="1"><g transform="translate(100.29282, 429.182899)"><g><path d="M 12.953125 -73.703125 L 31.53125 -73.609375 C 41.238281 -73.609375 49.773438 -70.109375 57.140625 -63.109375 C 64.503906 -56.117188 68.1875 -47.519531 68.1875 -37.3125 C 68.1875 -27.101562 64.585938 -18.347656 57.390625 -11.046875 C 50.191406 -3.742188 41.472656 -0.09375 31.234375 -0.09375 L 12.859375 -0.09375 C 8.773438 -0.09375 6.226562 -0.929688 5.21875 -2.609375 C 4.414062 -4.015625 4.015625 -6.15625 4.015625 -9.03125 L 4.015625 -64.875 C 4.015625 -66.476562 4.0625 -67.644531 4.15625 -68.375 C 4.257812 -69.113281 4.582031 -69.988281 5.125 -71 C 6.0625 -72.800781 8.671875 -73.703125 12.953125 -73.703125 Z M 31.53125 -17.875 C 36.351562 -17.875 40.703125 -19.664062 44.578125 -23.25 C 48.460938 -26.832031 50.40625 -31.332031 50.40625 -36.75 C 50.40625 -42.175781 48.515625 -46.710938 44.734375 -50.359375 C 40.953125 -54.003906 36.519531 -55.828125 31.4375 -55.828125 L 21.796875 -55.828125 L 21.796875 -17.875 Z M 31.53125 -17.875 "/></g></g></g><g fill="#000000" fill-opacity="1"><g transform="translate(170.9835, 429.182899)"><g><path d="M 55.03125 -32.78125 C 55.03125 -28.664062 54.007812 -25.617188 51.96875 -23.640625 C 49.925781 -21.671875 47.664062 -20.6875 45.1875 -20.6875 L 21.390625 -20.6875 C 21.390625 -18.8125 22.492188 -17.238281 24.703125 -15.96875 C 26.910156 -14.695312 29.117188 -14.0625 31.328125 -14.0625 C 35.210938 -14.0625 38.257812 -14.460938 40.46875 -15.265625 L 41.578125 -15.671875 C 43.179688 -16.398438 44.519531 -16.765625 45.59375 -16.765625 C 47.738281 -16.765625 49.578125 -15.257812 51.109375 -12.25 C 51.984375 -10.445312 52.421875 -8.90625 52.421875 -7.625 C 52.421875 -1.664062 45.289062 1.3125 31.03125 1.3125 C 26.070312 1.3125 21.664062 0.457031 17.8125 -1.25 C 13.96875 -2.957031 10.976562 -5.21875 8.84375 -8.03125 C 4.625 -13.457031 2.515625 -19.515625 2.515625 -26.203125 C 2.515625 -34.640625 5.238281 -41.382812 10.6875 -46.4375 C 16.144531 -51.5 22.957031 -54.03125 31.125 -54.03125 C 40.4375 -54.03125 47.265625 -50.75 51.609375 -44.1875 C 53.890625 -40.707031 55.03125 -36.90625 55.03125 -32.78125 Z M 33.84375 -29.828125 C 36.382812 -29.828125 37.65625 -30.894531 37.65625 -33.03125 C 37.65625 -34.570312 37.066406 -35.8125 35.890625 -36.75 C 34.722656 -37.6875 33.050781 -38.15625 30.875 -38.15625 C 28.695312 -38.15625 26.535156 -37.269531 24.390625 -35.5 C 22.253906 -33.726562 21.1875 -31.835938 21.1875 -29.828125 Z M 33.84375 -29.828125 "/></g></g></g><g fill="#000000" fill-opacity="1"><g transform="translate(228.520098, 429.182899)"><g><path d="M 39.96875 -52.3125 C 41.238281 -51.914062 42.289062 -51.234375 43.125 -50.265625 C 43.96875 -49.296875 44.390625 -47.738281 44.390625 -45.59375 C 44.390625 -43.445312 43.753906 -41.101562 42.484375 -38.5625 C 41.210938 -36.019531 39.367188 -34.75 36.953125 -34.75 C 35.742188 -34.75 34.585938 -35.015625 33.484375 -35.546875 C 32.378906 -36.085938 30.921875 -36.359375 29.109375 -36.359375 C 27.304688 -36.359375 25.617188 -35.71875 24.046875 -34.4375 C 22.472656 -33.164062 21.6875 -31.628906 21.6875 -29.828125 L 21.6875 -8.734375 C 21.6875 -7.191406 21.632812 -6.035156 21.53125 -5.265625 C 21.4375 -4.503906 21.125 -3.617188 20.59375 -2.609375 C 19.582031 -0.867188 16.96875 0 12.75 0 C 9.539062 0 7.234375 -0.566406 5.828125 -1.703125 C 4.753906 -2.640625 4.148438 -4.082031 4.015625 -6.03125 C 4.015625 -6.695312 4.015625 -7.664062 4.015625 -8.9375 L 4.015625 -44.1875 C 4.015625 -45.726562 4.0625 -46.882812 4.15625 -47.65625 C 4.257812 -48.425781 4.546875 -49.28125 5.015625 -50.21875 C 5.953125 -52.019531 8.566406 -52.921875 12.859375 -52.921875 C 16.867188 -52.921875 19.378906 -52.148438 20.390625 -50.609375 C 21.117188 -49.535156 21.484375 -48.429688 21.484375 -47.296875 C 21.828125 -47.765625 22.316406 -48.332031 22.953125 -49 C 23.585938 -49.675781 24.941406 -50.582031 27.015625 -51.71875 C 29.085938 -52.851562 30.910156 -53.421875 32.484375 -53.421875 C 34.054688 -53.421875 35.378906 -53.335938 36.453125 -53.171875 C 37.523438 -53.003906 38.695312 -52.71875 39.96875 -52.3125 Z M 39.96875 -52.3125 "/></g></g></g><g fill="#000000" fill-opacity="1"><g transform="translate(274.408786, 429.182899)"><g><path d="M 55.03125 -32.78125 C 55.03125 -28.664062 54.007812 -25.617188 51.96875 -23.640625 C 49.925781 -21.671875 47.664062 -20.6875 45.1875 -20.6875 L 21.390625 -20.6875 C 21.390625 -18.8125 22.492188 -17.238281 24.703125 -15.96875 C 26.910156 -14.695312 29.117188 -14.0625 31.328125 -14.0625 C 35.210938 -14.0625 38.257812 -14.460938 40.46875 -15.265625 L 41.578125 -15.671875 C 43.179688 -16.398438 44.519531 -16.765625 45.59375 -16.765625 C 47.738281 -16.765625 49.578125 -15.257812 51.109375 -12.25 C 51.984375 -10.445312 52.421875 -8.90625 52.421875 -7.625 C 52.421875 -1.664062 45.289062 1.3125 31.03125 1.3125 C 26.070312 1.3125 21.664062 0.457031 17.8125 -1.25 C 13.96875 -2.957031 10.976562 -5.21875 8.84375 -8.03125 C 4.625 -13.457031 2.515625 -19.515625 2.515625 -26.203125 C 2.515625 -34.640625 5.238281 -41.382812 10.6875 -46.4375 C 16.144531 -51.5 22.957031 -54.03125 31.125 -54.03125 C 40.4375 -54.03125 47.265625 -50.75 51.609375 -44.1875 C 53.890625 -40.707031 55.03125 -36.90625 55.03125 -32.78125 Z M 33.84375 -29.828125 C 36.382812 -29.828125 37.65625 -30.894531 37.65625 -33.03125 C 37.65625 -34.570312 37.066406 -35.8125 35.890625 -36.75 C 34.722656 -37.6875 33.050781 -38.15625 30.875 -38.15625 C 28.695312 -38.15625 26.535156 -37.269531 24.390625 -35.5 C 22.253906 -33.726562 21.1875 -31.835938 21.1875 -29.828125 Z M 33.84375 -29.828125 "/></g></g></g><g fill="#000000" fill-opacity="1"><g transform="translate(331.945384, 429.182899)"><g><path d="M 34.953125 -52.828125 C 39.566406 -52.828125 42.273438 -51.550781 43.078125 -49 C 43.484375 -47.726562 43.6875 -46.054688 43.6875 -43.984375 C 43.6875 -41.910156 43.46875 -40.253906 43.03125 -39.015625 C 42.59375 -37.773438 41.90625 -36.890625 40.96875 -36.359375 C 39.5625 -35.546875 37.519531 -35.140625 34.84375 -35.140625 L 28.421875 -35.546875 L 28.421875 -8.640625 C 28.421875 -6.085938 28.101562 -4.191406 27.46875 -2.953125 C 26.832031 -1.722656 25.859375 -0.90625 24.546875 -0.5 C 23.242188 -0.101562 21.554688 0.09375 19.484375 0.09375 C 17.410156 0.09375 15.753906 -0.117188 14.515625 -0.546875 C 13.273438 -0.984375 12.382812 -1.6875 11.84375 -2.65625 C 11.3125 -3.632812 10.992188 -4.523438 10.890625 -5.328125 C 10.796875 -6.128906 10.75 -7.300781 10.75 -8.84375 L 10.75 -35.453125 L 7.125 -35.453125 C 5.382812 -35.585938 4.148438 -35.988281 3.421875 -36.65625 C 2.140625 -37.925781 1.5 -40.367188 1.5 -43.984375 C 1.5 -49.472656 3.476562 -52.21875 7.4375 -52.21875 L 10.75 -52.21875 L 10.75 -57.546875 C 10.75 -62.703125 12.585938 -67.367188 16.265625 -71.546875 C 19.953125 -75.734375 25.273438 -77.828125 32.234375 -77.828125 C 33.773438 -77.828125 34.929688 -77.773438 35.703125 -77.671875 C 36.472656 -77.578125 37.359375 -77.257812 38.359375 -76.71875 C 40.171875 -75.851562 41.078125 -73.273438 41.078125 -68.984375 C 41.078125 -65.773438 40.503906 -63.46875 39.359375 -62.0625 C 38.421875 -60.988281 36.953125 -60.382812 34.953125 -60.25 C 34.347656 -60.25 33.410156 -60.25 32.140625 -60.25 C 29.660156 -60.25 28.421875 -59.414062 28.421875 -57.75 L 28.421875 -52.21875 Z M 34.953125 -52.828125 "/></g></g></g><g fill="#000000" fill-opacity="1"><g transform="translate(377.131179, 429.182899)"><g><path d="M 55.03125 -32.78125 C 55.03125 -28.664062 54.007812 -25.617188 51.96875 -23.640625 C 49.925781 -21.671875 47.664062 -20.6875 45.1875 -20.6875 L 21.390625 -20.6875 C 21.390625 -18.8125 22.492188 -17.238281 24.703125 -15.96875 C 26.910156 -14.695312 29.117188 -14.0625 31.328125 -14.0625 C 35.210938 -14.0625 38.257812 -14.460938 40.46875 -15.265625 L 41.578125 -15.671875 C 43.179688 -16.398438 44.519531 -16.765625 45.59375 -16.765625 C 47.738281 -16.765625 49.578125 -15.257812 51.109375 -12.25 C 51.984375 -10.445312 52.421875 -8.90625 52.421875 -7.625 C 52.421875 -1.664062 45.289062 1.3125 31.03125 1.3125 C 26.070312 1.3125 21.664062 0.457031 17.8125 -1.25 C 13.96875 -2.957031 10.976562 -5.21875 8.84375 -8.03125 C 4.625 -13.457031 2.515625 -19.515625 2.515625 -26.203125 C 2.515625 -34.640625 5.238281 -41.382812 10.6875 -46.4375 C 16.144531 -51.5 22.957031 -54.03125 31.125 -54.03125 C 40.4375 -54.03125 47.265625 -50.75 51.609375 -44.1875 C 53.890625 -40.707031 55.03125 -36.90625 55.03125 -32.78125 Z M 33.84375 -29.828125 C 36.382812 -29.828125 37.65625 -30.894531 37.65625 -33.03125 C 37.65625 -34.570312 37.066406 -35.8125 35.890625 -36.75 C 34.722656 -37.6875 33.050781 -38.15625 30.875 -38.15625 C 28.695312 -38.15625 26.535156 -37.269531 24.390625 -35.5 C 22.253906 -33.726562 21.1875 -31.835938 21.1875 -29.828125 Z M 33.84375 -29.828125 "/></g></g></g><g fill="#000000" fill-opacity="1"><g transform="translate(434.667777, 429.182899)"><g><path d="M 39.96875 -52.3125 C 41.238281 -51.914062 42.289062 -51.234375 43.125 -50.265625 C 43.96875 -49.296875 44.390625 -47.738281 44.390625 -45.59375 C 44.390625 -43.445312 43.753906 -41.101562 42.484375 -38.5625 C 41.210938 -36.019531 39.367188 -34.75 36.953125 -34.75 C 35.742188 -34.75 34.585938 -35.015625 33.484375 -35.546875 C 32.378906 -36.085938 30.921875 -36.359375 29.109375 -36.359375 C 27.304688 -36.359375 25.617188 -35.71875 24.046875 -34.4375 C 22.472656 -33.164062 21.6875 -31.628906 21.6875 -29.828125 L 21.6875 -8.734375 C 21.6875 -7.191406 21.632812 -6.035156 21.53125 -5.265625 C 21.4375 -4.503906 21.125 -3.617188 20.59375 -2.609375 C 19.582031 -0.867188 16.96875 0 12.75 0 C 9.539062 0 7.234375 -0.566406 5.828125 -1.703125 C 4.753906 -2.640625 4.148438 -4.082031 4.015625 -6.03125 C 4.015625 -6.695312 4.015625 -7.664062 4.015625 -8.9375 L 4.015625 -44.1875 C 4.015625 -45.726562 4.0625 -46.882812 4.15625 -47.65625 C 4.257812 -48.425781 4.546875 -49.28125 5.015625 -50.21875 C 5.953125 -52.019531 8.566406 -52.921875 12.859375 -52.921875 C 16.867188 -52.921875 19.378906 -52.148438 20.390625 -50.609375 C 21.117188 -49.535156 21.484375 -48.429688 21.484375 -47.296875 C 21.828125 -47.765625 22.316406 -48.332031 22.953125 -49 C 23.585938 -49.675781 24.941406 -50.582031 27.015625 -51.71875 C 29.085938 -52.851562 30.910156 -53.421875 32.484375 -53.421875 C 34.054688 -53.421875 35.378906 -53.335938 36.453125 -53.171875 C 37.523438 -53.003906 38.695312 -52.71875 39.96875 -52.3125 Z M 39.96875 -52.3125 "/></g></g></g><g fill="#000000" fill-opacity="1"><g transform="translate(480.556479, 429.182899)"><g><path d="M 55.03125 -32.78125 C 55.03125 -28.664062 54.007812 -25.617188 51.96875 -23.640625 C 49.925781 -21.671875 47.664062 -20.6875 45.1875 -20.6875 L 21.390625 -20.6875 C 21.390625 -18.8125 22.492188 -17.238281 24.703125 -15.96875 C 26.910156 -14.695312 29.117188 -14.0625 31.328125 -14.0625 C 35.210938 -14.0625 38.257812 -14.460938 40.46875 -15.265625 L 41.578125 -15.671875 C 43.179688 -16.398438 44.519531 -16.765625 45.59375 -16.765625 C 47.738281 -16.765625 49.578125 -15.257812 51.109375 -12.25 C 51.984375 -10.445312 52.421875 -8.90625 52.421875 -7.625 C 52.421875 -1.664062 45.289062 1.3125 31.03125 1.3125 C 26.070312 1.3125 21.664062 0.457031 17.8125 -1.25 C 13.96875 -2.957031 10.976562 -5.21875 8.84375 -8.03125 C 4.625 -13.457031 2.515625 -19.515625 2.515625 -26.203125 C 2.515625 -34.640625 5.238281 -41.382812 10.6875 -46.4375 C 16.144531 -51.5 22.957031 -54.03125 31.125 -54.03125 C 40.4375 -54.03125 47.265625 -50.75 51.609375 -44.1875 C 53.890625 -40.707031 55.03125 -36.90625 55.03125 -32.78125 Z M 33.84375 -29.828125 C 36.382812 -29.828125 37.65625 -30.894531 37.65625 -33.03125 C 37.65625 -34.570312 37.066406 -35.8125 35.890625 -36.75 C 34.722656 -37.6875 33.050781 -38.15625 30.875 -38.15625 C 28.695312 -38.15625 26.535156 -37.269531 24.390625 -35.5 C 22.253906 -33.726562 21.1875 -31.835938 21.1875 -29.828125 Z M 33.84375 -29.828125 "/></g></g></g><g fill="#000000" fill-opacity="1"><g transform="translate(538.093076, 429.182899)"><g><path d="M 33.4375 -52.921875 C 40.132812 -52.921875 45.707031 -50.359375 50.15625 -45.234375 C 54.613281 -40.117188 56.84375 -33.878906 56.84375 -26.515625 L 56.84375 -8.84375 C 56.84375 -7.300781 56.789062 -6.144531 56.6875 -5.375 C 56.582031 -4.601562 56.296875 -3.75 55.828125 -2.8125 C 54.890625 -1 52.28125 -0.09375 48 -0.09375 C 43.25 -0.09375 40.503906 -1.332031 39.765625 -3.8125 C 39.367188 -4.945312 39.171875 -6.65625 39.171875 -8.9375 L 39.171875 -26.609375 C 39.171875 -29.359375 38.378906 -31.5 36.796875 -33.03125 C 35.222656 -34.570312 33.113281 -35.34375 30.46875 -35.34375 C 27.832031 -35.34375 25.691406 -34.539062 24.046875 -32.9375 C 22.410156 -31.332031 21.59375 -29.222656 21.59375 -26.609375 L 21.59375 -8.84375 C 21.59375 -7.300781 21.539062 -6.144531 21.4375 -5.375 C 21.34375 -4.601562 21.023438 -3.75 20.484375 -2.8125 C 19.617188 -1 17.039062 -0.09375 12.75 -0.09375 C 8.53125 -0.09375 5.953125 -1 5.015625 -2.8125 C 4.546875 -3.8125 4.257812 -4.695312 4.15625 -5.46875 C 4.0625 -6.238281 4.015625 -7.394531 4.015625 -8.9375 L 4.015625 -44.484375 C 4.015625 -45.960938 4.0625 -47.082031 4.15625 -47.84375 C 4.257812 -48.613281 4.582031 -49.46875 5.125 -50.40625 C 6.0625 -52.082031 8.640625 -52.921875 12.859375 -52.921875 C 16.941406 -52.921875 19.453125 -52.148438 20.390625 -50.609375 C 21.054688 -49.472656 21.390625 -48.101562 21.390625 -46.5 C 21.660156 -46.96875 22.265625 -47.632812 23.203125 -48.5 C 24.140625 -49.375 25.039062 -50.078125 25.90625 -50.609375 C 28.1875 -52.148438 30.695312 -52.921875 33.4375 -52.921875 Z M 33.4375 -52.921875 "/></g></g></g><g fill="#000000" fill-opacity="1"><g transform="translate(598.943295, 429.182899)"><g><path d="M 20.59375 -26.453125 C 20.59375 -23.609375 21.523438 -21.398438 23.390625 -19.828125 C 25.265625 -18.253906 27.253906 -17.46875 29.359375 -17.46875 C 31.472656 -17.46875 33.453125 -18.085938 35.296875 -19.328125 C 37.140625 -20.566406 38.628906 -21.1875 39.765625 -21.1875 C 41.773438 -21.1875 44.21875 -19.410156 47.09375 -15.859375 C 48.632812 -13.921875 49.40625 -12.179688 49.40625 -10.640625 C 49.40625 -8.097656 47.566406 -5.722656 43.890625 -3.515625 C 40.066406 -0.835938 35.378906 0.5 29.828125 0.5 C 23.597656 0.5 17.601562 -1.738281 11.84375 -6.21875 C 9.101562 -8.363281 6.863281 -11.226562 5.125 -14.8125 C 3.382812 -18.394531 2.515625 -22.34375 2.515625 -26.65625 C 2.515625 -30.976562 3.382812 -34.894531 5.125 -38.40625 C 6.863281 -41.925781 9.101562 -44.753906 11.84375 -46.890625 C 17.40625 -51.316406 23.332031 -53.53125 29.625 -53.53125 C 32.164062 -53.53125 34.640625 -53.175781 37.046875 -52.46875 C 39.460938 -51.769531 41.238281 -51.082031 42.375 -50.40625 L 43.984375 -49.40625 C 45.191406 -48.601562 46.128906 -47.96875 46.796875 -47.5 C 48.535156 -46.15625 49.40625 -44.628906 49.40625 -42.921875 C 49.40625 -41.222656 48.703125 -39.300781 47.296875 -37.15625 C 44.890625 -33.476562 42.582031 -31.640625 40.375 -31.640625 C 39.101562 -31.640625 37.296875 -32.375 34.953125 -33.84375 C 33.742188 -34.976562 32.015625 -35.546875 29.765625 -35.546875 C 27.523438 -35.546875 25.4375 -34.742188 23.5 -33.140625 C 21.5625 -31.535156 20.59375 -29.304688 20.59375 -26.453125 Z M 20.59375 -26.453125 "/></g></g></g><g fill="#000000" fill-opacity="1"><g transform="translate(650.856747, 429.182899)"><g><path d="M 55.03125 -32.78125 C 55.03125 -28.664062 54.007812 -25.617188 51.96875 -23.640625 C 49.925781 -21.671875 47.664062 -20.6875 45.1875 -20.6875 L 21.390625 -20.6875 C 21.390625 -18.8125 22.492188 -17.238281 24.703125 -15.96875 C 26.910156 -14.695312 29.117188 -14.0625 31.328125 -14.0625 C 35.210938 -14.0625 38.257812 -14.460938 40.46875 -15.265625 L 41.578125 -15.671875 C 43.179688 -16.398438 44.519531 -16.765625 45.59375 -16.765625 C 47.738281 -16.765625 49.578125 -15.257812 51.109375 -12.25 C 51.984375 -10.445312 52.421875 -8.90625 52.421875 -7.625 C 52.421875 -1.664062 45.289062 1.3125 31.03125 1.3125 C 26.070312 1.3125 21.664062 0.457031 17.8125 -1.25 C 13.96875 -2.957031 10.976562 -5.21875 8.84375 -8.03125 C 4.625 -13.457031 2.515625 -19.515625 2.515625 -26.203125 C 2.515625 -34.640625 5.238281 -41.382812 10.6875 -46.4375 C 16.144531 -51.5 22.957031 -54.03125 31.125 -54.03125 C 40.4375 -54.03125 47.265625 -50.75 51.609375 -44.1875 C 53.890625 -40.707031 55.03125 -36.90625 55.03125 -32.78125 Z M 33.84375 -29.828125 C 36.382812 -29.828125 37.65625 -30.894531 37.65625 -33.03125 C 37.65625 -34.570312 37.066406 -35.8125 35.890625 -36.75 C 34.722656 -37.6875 33.050781 -38.15625 30.875 -38.15625 C 28.695312 -38.15625 26.535156 -37.269531 24.390625 -35.5 C 22.253906 -33.726562 21.1875 -31.835938 21.1875 -29.828125 Z M 33.84375 -29.828125 "/></g></g></g><g fill="#000000" fill-opacity="1"><g transform="translate(139.804816, 569.460783)"><g><path d="M 71.703125 -52.515625 C 75.984375 -50.640625 78.125 -48.332031 78.125 -45.59375 C 78.125 -44.457031 77.585938 -42.632812 76.515625 -40.125 C 75.453125 -37.613281 74.550781 -35.421875 73.8125 -33.546875 L 62.765625 -6.625 C 61.753906 -3.675781 60.082031 -1.601562 57.75 -0.40625 C 56.738281 0.0625 55.460938 0.296875 53.921875 0.296875 C 52.378906 0.296875 50.890625 -0.285156 49.453125 -1.453125 C 48.015625 -2.628906 47.0625 -3.816406 46.59375 -5.015625 L 45.796875 -6.734375 C 45.253906 -8.066406 43.28125 -13.285156 39.875 -22.390625 C 39.195312 -20.785156 38.207031 -18.15625 36.90625 -14.5 C 35.601562 -10.851562 34.765625 -8.578125 34.390625 -7.671875 C 34.023438 -6.773438 33.789062 -6.175781 33.6875 -5.875 C 33.59375 -5.570312 33.3125 -5.019531 32.84375 -4.21875 C 32.375 -3.414062 31.835938 -2.710938 31.234375 -2.109375 C 29.628906 -0.503906 27.785156 0.296875 25.703125 0.296875 C 23.628906 0.296875 21.890625 -0.285156 20.484375 -1.453125 C 19.078125 -2.628906 18.140625 -3.816406 17.671875 -5.015625 L 2.515625 -41.96875 C 1.835938 -43.976562 1.5 -45.285156 1.5 -45.890625 C 1.5 -48.566406 3.410156 -50.675781 7.234375 -52.21875 C 9.367188 -53.09375 11.101562 -53.53125 12.4375 -53.53125 C 13.78125 -53.53125 14.867188 -53.242188 15.703125 -52.671875 C 16.546875 -52.097656 17.132812 -51.523438 17.46875 -50.953125 C 17.800781 -50.390625 18.070312 -49.804688 18.28125 -49.203125 C 19.414062 -46.523438 21.789062 -40.234375 25.40625 -30.328125 L 31.328125 -46.59375 C 31.734375 -47.9375 32.472656 -49.109375 33.546875 -50.109375 C 35.484375 -52.046875 37.457031 -53.015625 39.46875 -53.015625 C 41.476562 -53.015625 43.203125 -52.476562 44.640625 -51.40625 C 46.078125 -50.34375 47.0625 -49.273438 47.59375 -48.203125 L 48.40625 -46.5 C 51.75 -37.125 53.722656 -31.765625 54.328125 -30.421875 L 60.453125 -47.09375 C 62.054688 -51.382812 64.46875 -53.53125 67.6875 -53.53125 C 68.957031 -53.53125 70.296875 -53.191406 71.703125 -52.515625 Z M 71.703125 -52.515625 "/></g></g></g><g fill="#000000" fill-opacity="1"><g transform="translate(219.432249, 569.460783)"><g><path d="M 4.015625 -44.078125 C 4.015625 -45.617188 4.0625 -46.773438 4.15625 -47.546875 C 4.257812 -48.316406 4.546875 -49.207031 5.015625 -50.21875 C 5.953125 -51.957031 8.566406 -52.828125 12.859375 -52.828125 C 16.066406 -52.828125 18.34375 -52.253906 19.6875 -51.109375 C 20.820312 -50.171875 21.421875 -48.734375 21.484375 -46.796875 C 21.554688 -46.128906 21.59375 -45.160156 21.59375 -43.890625 L 21.59375 -8.734375 C 21.59375 -7.191406 21.539062 -6.035156 21.4375 -5.265625 C 21.34375 -4.503906 21.023438 -3.617188 20.484375 -2.609375 C 19.617188 -0.867188 17.039062 0 12.75 0 C 8.53125 0 5.953125 -0.90625 5.015625 -2.71875 C 4.546875 -3.71875 4.257812 -4.582031 4.15625 -5.3125 C 4.0625 -6.050781 4.015625 -7.226562 4.015625 -8.84375 Z M 20.53125 -62.703125 C 20.03125 -61.734375 19.144531 -61.046875 17.875 -60.640625 C 16.601562 -60.242188 14.910156 -60.046875 12.796875 -60.046875 C 10.691406 -60.046875 9.003906 -60.242188 7.734375 -60.640625 C 6.460938 -61.046875 5.570312 -61.75 5.0625 -62.75 C 4.5625 -63.757812 4.257812 -64.648438 4.15625 -65.421875 C 4.0625 -66.191406 4.015625 -67.347656 4.015625 -68.890625 C 4.015625 -70.429688 4.0625 -71.585938 4.15625 -72.359375 C 4.257812 -73.128906 4.546875 -73.984375 5.015625 -74.921875 C 5.953125 -76.722656 8.566406 -77.625 12.859375 -77.625 C 17.078125 -77.625 19.617188 -76.722656 20.484375 -74.921875 C 21.023438 -73.910156 21.34375 -73.019531 21.4375 -72.25 C 21.539062 -71.476562 21.59375 -70.320312 21.59375 -68.78125 C 21.59375 -67.25 21.539062 -66.097656 21.4375 -65.328125 C 21.34375 -64.554688 21.039062 -63.679688 20.53125 -62.703125 Z M 20.53125 -62.703125 "/></g></g></g><g fill="#000000" fill-opacity="1"><g transform="translate(245.037535, 569.460783)"><g><path d="M 34.75 -35.140625 L 28.21875 -35.546875 L 28.21875 -21.6875 C 28.21875 -19.882812 28.5 -18.578125 29.0625 -17.765625 C 29.632812 -16.960938 30.707031 -16.5625 32.28125 -16.5625 C 33.851562 -16.5625 35.054688 -16.507812 35.890625 -16.40625 C 36.734375 -16.3125 37.625 -16 38.5625 -15.46875 C 40.101562 -14.59375 40.875 -12.347656 40.875 -8.734375 C 40.875 -4.515625 39.9375 -1.9375 38.0625 -1 C 37.050781 -0.53125 36.160156 -0.242188 35.390625 -0.140625 C 34.628906 -0.046875 33.507812 0 32.03125 0 C 25.070312 0 19.785156 -1.570312 16.171875 -4.71875 C 12.554688 -7.863281 10.75 -13.1875 10.75 -20.6875 L 10.75 -35.546875 C 9.476562 -35.347656 8.101562 -35.25 6.625 -35.25 C 5.15625 -35.25 3.929688 -35.816406 2.953125 -36.953125 C 1.984375 -38.085938 1.5 -40.023438 1.5 -42.765625 C 1.5 -45.515625 1.664062 -47.507812 2 -48.75 C 2.34375 -49.988281 2.816406 -50.878906 3.421875 -51.421875 C 4.484375 -52.285156 5.820312 -52.71875 7.4375 -52.71875 L 10.75 -52.3125 L 10.75 -62.65625 C 10.75 -64.195312 10.796875 -65.335938 10.890625 -66.078125 C 10.992188 -66.816406 11.3125 -67.617188 11.84375 -68.484375 C 12.71875 -70.160156 15.296875 -71 19.578125 -71 C 24.128906 -71 26.84375 -69.757812 27.71875 -67.28125 C 28.050781 -66.207031 28.21875 -64.5 28.21875 -62.15625 L 28.21875 -52.3125 C 31.164062 -52.582031 33.390625 -52.71875 34.890625 -52.71875 C 36.398438 -52.71875 37.539062 -52.664062 38.3125 -52.5625 C 39.082031 -52.46875 39.96875 -52.148438 40.96875 -51.609375 C 42.707031 -50.742188 43.578125 -48.171875 43.578125 -43.890625 C 43.578125 -39.671875 42.675781 -37.09375 40.875 -36.15625 C 39.863281 -35.6875 38.972656 -35.398438 38.203125 -35.296875 C 37.441406 -35.191406 36.289062 -35.140625 34.75 -35.140625 Z M 34.75 -35.140625 "/></g></g></g><g fill="#000000" fill-opacity="1"><g transform="translate(290.122929, 569.460783)"><g><path d="M 33.34375 -52.71875 C 40.03125 -52.71875 45.597656 -50.171875 50.046875 -45.078125 C 54.503906 -39.992188 56.734375 -33.769531 56.734375 -26.40625 L 56.734375 -8.734375 C 56.734375 -7.191406 56.679688 -6.035156 56.578125 -5.265625 C 56.484375 -4.503906 56.171875 -3.617188 55.640625 -2.609375 C 54.765625 -0.867188 52.1875 0 47.90625 0 C 43.820312 0 41.273438 -0.867188 40.265625 -2.609375 C 39.734375 -3.617188 39.414062 -4.523438 39.3125 -5.328125 C 39.21875 -6.128906 39.171875 -7.332031 39.171875 -8.9375 L 39.171875 -26.515625 C 39.171875 -29.253906 38.398438 -31.394531 36.859375 -32.9375 C 35.316406 -34.476562 33.359375 -35.25 30.984375 -35.25 C 28.609375 -35.25 26.515625 -34.53125 24.703125 -33.09375 C 22.898438 -31.65625 21.863281 -30.03125 21.59375 -28.21875 L 21.59375 -8.734375 C 21.59375 -7.191406 21.539062 -6.035156 21.4375 -5.265625 C 21.34375 -4.503906 21.023438 -3.617188 20.484375 -2.609375 C 19.617188 -0.867188 17.039062 0 12.75 0 C 8.53125 0 5.953125 -0.90625 5.015625 -2.71875 C 4.546875 -3.71875 4.257812 -4.582031 4.15625 -5.3125 C 4.0625 -6.050781 4.015625 -7.226562 4.015625 -8.84375 L 4.015625 -68.890625 C 4.015625 -70.429688 4.0625 -71.585938 4.15625 -72.359375 C 4.257812 -73.128906 4.546875 -73.984375 5.015625 -74.921875 C 5.953125 -76.722656 8.566406 -77.625 12.859375 -77.625 C 17.078125 -77.625 19.617188 -76.722656 20.484375 -74.921875 C 21.023438 -73.910156 21.34375 -73.019531 21.4375 -72.25 C 21.539062 -71.476562 21.59375 -70.320312 21.59375 -68.78125 L 21.59375 -46.59375 C 24.9375 -50.675781 28.851562 -52.71875 33.34375 -52.71875 Z M 33.34375 -52.71875 "/></g></g></g><g fill="#000000" fill-opacity="1"><g transform="translate(350.872732, 569.460783)"><g/></g></g><g fill="#000000" fill-opacity="1"><g transform="translate(376.277203, 569.460783)"><g><path d="M 56.4375 -39.46875 C 60.382812 -34.78125 62.359375 -29.523438 62.359375 -23.703125 C 62.222656 -17.003906 59.929688 -11.394531 55.484375 -6.875 C 51.035156 -2.351562 45.628906 -0.09375 39.265625 -0.09375 L 12.859375 -0.09375 C 8.171875 -0.09375 5.425781 -1.367188 4.625 -3.921875 C 4.21875 -5.054688 4.015625 -6.796875 4.015625 -9.140625 L 4.015625 -64.875 C 4.015625 -66.476562 4.0625 -67.644531 4.15625 -68.375 C 4.257812 -69.113281 4.582031 -69.988281 5.125 -71 C 6.0625 -72.800781 8.671875 -73.703125 12.953125 -73.703125 L 38.265625 -73.703125 C 44.421875 -73.703125 49.570312 -71.5625 53.71875 -67.28125 C 58.070312 -62.925781 60.25 -57.703125 60.25 -51.609375 C 60.25 -47.191406 58.976562 -43.144531 56.4375 -39.46875 Z M 44.59375 -24.703125 C 44.59375 -26.304688 44.40625 -27.578125 44.03125 -28.515625 C 43.664062 -29.453125 43.046875 -30.125 42.171875 -30.53125 C 40.835938 -31.0625 38.960938 -31.328125 36.546875 -31.328125 C 34.140625 -31.328125 32.332031 -31.796875 31.125 -32.734375 C 29.925781 -33.671875 29.328125 -35.59375 29.328125 -38.5 C 29.328125 -41.414062 29.941406 -43.34375 31.171875 -44.28125 C 32.410156 -45.21875 34.472656 -45.6875 37.359375 -45.6875 C 40.035156 -45.6875 41.640625 -46.390625 42.171875 -47.796875 C 42.378906 -48.535156 42.484375 -49.738281 42.484375 -51.40625 C 42.484375 -53.082031 41.929688 -54.253906 40.828125 -54.921875 C 39.722656 -55.597656 38.0625 -55.9375 35.84375 -55.9375 L 21.796875 -55.9375 L 21.796875 -17.875 L 38.265625 -17.875 C 42.484375 -17.875 44.59375 -20.148438 44.59375 -24.703125 Z M 44.59375 -24.703125 "/></g></g></g><g fill="#000000" fill-opacity="1"><g transform="translate(441.14395, 569.460783)"><g><path d="M 4.015625 -44.078125 C 4.015625 -45.617188 4.0625 -46.773438 4.15625 -47.546875 C 4.257812 -48.316406 4.546875 -49.207031 5.015625 -50.21875 C 5.953125 -51.957031 8.566406 -52.828125 12.859375 -52.828125 C 16.066406 -52.828125 18.34375 -52.253906 19.6875 -51.109375 C 20.820312 -50.171875 21.421875 -48.734375 21.484375 -46.796875 C 21.554688 -46.128906 21.59375 -45.160156 21.59375 -43.890625 L 21.59375 -8.734375 C 21.59375 -7.191406 21.539062 -6.035156 21.4375 -5.265625 C 21.34375 -4.503906 21.023438 -3.617188 20.484375 -2.609375 C 19.617188 -0.867188 17.039062 0 12.75 0 C 8.53125 0 5.953125 -0.90625 5.015625 -2.71875 C 4.546875 -3.71875 4.257812 -4.582031 4.15625 -5.3125 C 4.0625 -6.050781 4.015625 -7.226562 4.015625 -8.84375 Z M 20.53125 -62.703125 C 20.03125 -61.734375 19.144531 -61.046875 17.875 -60.640625 C 16.601562 -60.242188 14.910156 -60.046875 12.796875 -60.046875 C 10.691406 -60.046875 9.003906 -60.242188 7.734375 -60.640625 C 6.460938 -61.046875 5.570312 -61.75 5.0625 -62.75 C 4.5625 -63.757812 4.257812 -64.648438 4.15625 -65.421875 C 4.0625 -66.191406 4.015625 -67.347656 4.015625 -68.890625 C 4.015625 -70.429688 4.0625 -71.585938 4.15625 -72.359375 C 4.257812 -73.128906 4.546875 -73.984375 5.015625 -74.921875 C 5.953125 -76.722656 8.566406 -77.625 12.859375 -77.625 C 17.078125 -77.625 19.617188 -76.722656 20.484375 -74.921875 C 21.023438 -73.910156 21.34375 -73.019531 21.4375 -72.25 C 21.539062 -71.476562 21.59375 -70.320312 21.59375 -68.78125 C 21.59375 -67.25 21.539062 -66.097656 21.4375 -65.328125 C 21.34375 -64.554688 21.039062 -63.679688 20.53125 -62.703125 Z M 20.53125 -62.703125 "/></g></g></g><g fill="#000000" fill-opacity="1"><g transform="translate(466.749236, 569.460783)"><g><path d="M 33.4375 -52.921875 C 40.132812 -52.921875 45.707031 -50.359375 50.15625 -45.234375 C 54.613281 -40.117188 56.84375 -33.878906 56.84375 -26.515625 L 56.84375 -8.84375 C 56.84375 -7.300781 56.789062 -6.144531 56.6875 -5.375 C 56.582031 -4.601562 56.296875 -3.75 55.828125 -2.8125 C 54.890625 -1 52.28125 -0.09375 48 -0.09375 C 43.25 -0.09375 40.503906 -1.332031 39.765625 -3.8125 C 39.367188 -4.945312 39.171875 -6.65625 39.171875 -8.9375 L 39.171875 -26.609375 C 39.171875 -29.359375 38.378906 -31.5 36.796875 -33.03125 C 35.222656 -34.570312 33.113281 -35.34375 30.46875 -35.34375 C 27.832031 -35.34375 25.691406 -34.539062 24.046875 -32.9375 C 22.410156 -31.332031 21.59375 -29.222656 21.59375 -26.609375 L 21.59375 -8.84375 C 21.59375 -7.300781 21.539062 -6.144531 21.4375 -5.375 C 21.34375 -4.601562 21.023438 -3.75 20.484375 -2.8125 C 19.617188 -1 17.039062 -0.09375 12.75 -0.09375 C 8.53125 -0.09375 5.953125 -1 5.015625 -2.8125 C 4.546875 -3.8125 4.257812 -4.695312 4.15625 -5.46875 C 4.0625 -6.238281 4.015625 -7.394531 4.015625 -8.9375 L 4.015625 -44.484375 C 4.015625 -45.960938 4.0625 -47.082031 4.15625 -47.84375 C 4.257812 -48.613281 4.582031 -49.46875 5.125 -50.40625 C 6.0625 -52.082031 8.640625 -52.921875 12.859375 -52.921875 C 16.941406 -52.921875 19.453125 -52.148438 20.390625 -50.609375 C 21.054688 -49.472656 21.390625 -48.101562 21.390625 -46.5 C 21.660156 -46.96875 22.265625 -47.632812 23.203125 -48.5 C 24.140625 -49.375 25.039062 -50.078125 25.90625 -50.609375 C 28.1875 -52.148438 30.695312 -52.921875 33.4375 -52.921875 Z M 33.4375 -52.921875 "/></g></g></g><g fill="#000000" fill-opacity="1"><g transform="translate(527.599455, 569.460783)"><g><path d="M 35.140625 -26.515625 L 48.5 -15.46875 C 50.175781 -14.0625 51.226562 -12.988281 51.65625 -12.25 C 52.09375 -11.507812 52.3125 -10.804688 52.3125 -10.140625 C 52.3125 -8.535156 51.273438 -6.359375 49.203125 -3.609375 C 46.929688 -0.796875 44.925781 0.609375 43.1875 0.609375 C 41.707031 0.609375 39.664062 -0.363281 37.0625 -2.3125 L 36.046875 -3.015625 C 34.503906 -4.285156 32.125 -6.507812 28.90625 -9.6875 C 25.695312 -12.863281 23.257812 -15.125 21.59375 -16.46875 L 21.59375 -8.734375 C 21.59375 -7.191406 21.539062 -6.035156 21.4375 -5.265625 C 21.34375 -4.503906 21.023438 -3.617188 20.484375 -2.609375 C 19.617188 -0.867188 17.039062 0 12.75 0 C 8.53125 0 5.953125 -0.90625 5.015625 -2.71875 C 4.546875 -3.71875 4.257812 -4.601562 4.15625 -5.375 C 4.0625 -6.144531 4.015625 -7.300781 4.015625 -8.84375 L 4.015625 -68.984375 C 4.015625 -70.523438 4.0625 -71.679688 4.15625 -72.453125 C 4.257812 -73.222656 4.546875 -74.109375 5.015625 -75.109375 C 5.953125 -76.921875 8.566406 -77.828125 12.859375 -77.828125 C 16.066406 -77.828125 18.34375 -77.257812 19.6875 -76.125 C 20.820312 -75.1875 21.421875 -73.710938 21.484375 -71.703125 C 21.554688 -71.097656 21.59375 -70.160156 21.59375 -68.890625 L 21.59375 -37.0625 C 22.789062 -38.0625 24.613281 -39.765625 27.0625 -42.171875 C 29.507812 -44.585938 31.332031 -46.296875 32.53125 -47.296875 L 33.734375 -48.109375 C 36.078125 -49.910156 38.085938 -50.8125 39.765625 -50.8125 C 41.441406 -50.8125 43.367188 -49.453125 45.546875 -46.734375 C 47.722656 -44.023438 48.8125 -41.898438 48.8125 -40.359375 C 48.8125 -38.828125 47.570312 -37.023438 45.09375 -34.953125 Z M 35.140625 -26.515625 "/></g></g></g><g fill="#000000" fill-opacity="1"><g transform="translate(581.42077, 569.460783)"><g><path d="M 53.21875 -52.3125 C 57.175781 -50.570312 59.15625 -48.46875 59.15625 -46 C 59.15625 -44.789062 58.882812 -43.648438 58.34375 -42.578125 C 57.8125 -41.503906 57.546875 -40.9375 57.546875 -40.875 L 31.234375 17.96875 C 30.691406 19.25 30.238281 20.222656 29.875 20.890625 C 29.507812 21.554688 28.921875 22.191406 28.109375 22.796875 C 27.304688 23.398438 26.300781 23.703125 25.09375 23.703125 C 23.894531 23.703125 22.125 23.195312 19.78125 22.1875 C 15.832031 20.445312 13.859375 18.375 13.859375 15.96875 C 13.859375 14.363281 17.070312 6.695312 23.5 -7.03125 L 3.515625 -40.671875 C 2.171875 -42.878906 1.5 -44.519531 1.5 -45.59375 C 1.5 -47.738281 3.304688 -49.878906 6.921875 -52.015625 C 9.203125 -53.359375 10.976562 -54.03125 12.25 -54.03125 C 13.519531 -54.03125 14.554688 -53.757812 15.359375 -53.21875 C 16.160156 -52.6875 16.742188 -52.132812 17.109375 -51.5625 C 17.484375 -51 19.328125 -47.882812 22.640625 -42.21875 C 25.953125 -36.5625 29.117188 -31.289062 32.140625 -26.40625 C 32.472656 -27.476562 34.28125 -31.613281 37.5625 -38.8125 C 40.84375 -46.007812 42.597656 -49.84375 42.828125 -50.3125 C 43.066406 -50.78125 43.453125 -51.347656 43.984375 -52.015625 C 44.859375 -53.148438 46.082031 -53.71875 47.65625 -53.71875 C 49.226562 -53.71875 51.082031 -53.25 53.21875 -52.3125 Z M 53.21875 -52.3125 "/></g></g></g><g fill="#000000" fill-opacity="1"><g transform="translate(642.07013, 569.460783)"><g><path d="M 5.015625 -15.3125 C 5.691406 -16.613281 6.710938 -17.5 8.078125 -17.96875 C 9.453125 -18.4375 11.59375 -18.671875 14.5 -18.671875 C 17.414062 -18.671875 19.523438 -18.035156 20.828125 -16.765625 C 22.140625 -15.492188 22.796875 -13.488281 22.796875 -10.75 L 22.796875 -9.140625 C 22.796875 -7.535156 22.742188 -6.347656 22.640625 -5.578125 C 22.546875 -4.804688 22.226562 -3.882812 21.6875 -2.8125 C 20.613281 -0.875 18.050781 0.09375 14 0.09375 C 9.957031 0.09375 7.28125 -0.554688 5.96875 -1.859375 C 4.664062 -3.160156 4.015625 -5.6875 4.015625 -9.4375 C 4.015625 -12.050781 4.347656 -14.007812 5.015625 -15.3125 Z M 18.46875 -27.015625 C 17.195312 -26.679688 15.488281 -26.515625 13.34375 -26.515625 C 11.207031 -26.515625 9.503906 -26.679688 8.234375 -27.015625 C 6.960938 -27.347656 6.070312 -27.945312 5.5625 -28.8125 C 5.0625 -29.6875 4.757812 -30.457031 4.65625 -31.125 C 4.5625 -31.800781 4.515625 -32.84375 4.515625 -34.25 L 4.515625 -66.078125 C 4.515625 -67.484375 4.5625 -68.535156 4.65625 -69.234375 C 4.757812 -69.941406 5.078125 -70.726562 5.609375 -71.59375 C 6.148438 -72.46875 7.054688 -73.085938 8.328125 -73.453125 C 9.609375 -73.828125 11.316406 -74.015625 13.453125 -74.015625 C 15.597656 -74.015625 17.304688 -73.828125 18.578125 -73.453125 C 19.847656 -73.085938 20.734375 -72.453125 21.234375 -71.546875 C 21.742188 -70.640625 22.046875 -69.835938 22.140625 -69.140625 C 22.242188 -68.441406 22.296875 -67.390625 22.296875 -65.984375 L 22.296875 -34.140625 C 22.296875 -32.734375 22.242188 -31.695312 22.140625 -31.03125 C 22.046875 -30.363281 21.726562 -29.609375 21.1875 -28.765625 C 20.65625 -27.929688 19.75 -27.347656 18.46875 -27.015625 Z M 18.46875 -27.015625 "/></g></g></g></svg>