<svg xmlns="http://www.w3.org/2000/svg" xmlns:xlink="http://www.w3.org/1999/xlink" width="1080" zoomAndPan="magnify" viewBox="0 0 810 809.999993" height="1080" preserveAspectRatio="xMidYMid meet" version="1.0"><defs><g/><clipPath id="710c343650"><path d="M 513 8 L 563.894531 8 L 563.894531 66 L 513 66 Z M 513 8 " clip-rule="nonzero"/></clipPath></defs><rect x="-81" width="972" fill="#ffffff" y="-80.999999" height="971.999992" fill-opacity="1"/><rect x="-81" width="972" fill="#339fe6" y="-80.999999" height="971.999992" fill-opacity="1"/><g fill="#000000" fill-opacity="1"><g transform="translate(191.317465, 462.805633)"><g><path d="M 5.125 -10.34375 C 3.382812 -12.488281 2.515625 -14.410156 2.515625 -16.109375 C 2.515625 -17.816406 3.953125 -20.078125 6.828125 -22.890625 C 8.503906 -24.503906 10.28125 -25.3125 12.15625 -25.3125 C 14.03125 -25.3125 16.640625 -23.632812 19.984375 -20.28125 C 20.921875 -19.144531 22.257812 -18.054688 24 -17.015625 C 25.738281 -15.984375 27.347656 -15.46875 28.828125 -15.46875 C 35.046875 -15.46875 38.15625 -18.007812 38.15625 -23.09375 C 38.15625 -24.632812 37.300781 -25.921875 35.59375 -26.953125 C 33.882812 -27.992188 31.757812 -28.75 29.21875 -29.21875 C 26.675781 -29.6875 23.929688 -30.4375 20.984375 -31.46875 C 18.035156 -32.507812 15.289062 -33.734375 12.75 -35.140625 C 10.207031 -36.546875 8.082031 -38.769531 6.375 -41.8125 C 4.664062 -44.863281 3.8125 -48.535156 3.8125 -52.828125 C 3.8125 -58.710938 6.003906 -63.847656 10.390625 -68.234375 C 14.773438 -72.617188 20.75 -74.8125 28.3125 -74.8125 C 32.332031 -74.8125 36 -74.289062 39.3125 -73.25 C 42.625 -72.21875 44.914062 -71.164062 46.1875 -70.09375 L 48.703125 -68.1875 C 50.773438 -66.25 51.8125 -64.609375 51.8125 -63.265625 C 51.8125 -61.921875 51.007812 -60.082031 49.40625 -57.75 C 47.132812 -54.394531 44.789062 -52.71875 42.375 -52.71875 C 40.96875 -52.71875 39.226562 -53.390625 37.15625 -54.734375 C 36.957031 -54.867188 36.570312 -55.203125 36 -55.734375 C 35.425781 -56.265625 34.90625 -56.703125 34.4375 -57.046875 C 33.03125 -57.910156 31.238281 -58.34375 29.0625 -58.34375 C 26.894531 -58.34375 25.085938 -57.820312 23.640625 -56.78125 C 22.203125 -55.75 21.484375 -54.3125 21.484375 -52.46875 C 21.484375 -50.625 22.335938 -49.132812 24.046875 -48 C 25.753906 -46.863281 27.878906 -46.09375 30.421875 -45.6875 C 32.972656 -45.289062 35.753906 -44.671875 38.765625 -43.828125 C 41.773438 -42.992188 44.550781 -41.972656 47.09375 -40.765625 C 49.632812 -39.566406 51.757812 -37.476562 53.46875 -34.5 C 55.175781 -31.519531 56.03125 -27.851562 56.03125 -23.5 C 56.03125 -19.144531 55.160156 -15.3125 53.421875 -12 C 51.679688 -8.6875 49.40625 -6.125 46.59375 -4.3125 C 41.175781 -0.769531 35.382812 1 29.21875 1 C 26.070312 1 23.09375 0.613281 20.28125 -0.15625 C 17.46875 -0.925781 15.191406 -1.878906 13.453125 -3.015625 C 9.910156 -5.148438 7.4375 -7.222656 6.03125 -9.234375 Z M 5.125 -10.34375 "/></g></g></g><g fill="#000000" fill-opacity="1"><g transform="translate(249.858188, 462.805633)"><g><path d="M 71.703125 -52.515625 C 75.984375 -50.640625 78.125 -48.332031 78.125 -45.59375 C 78.125 -44.457031 77.585938 -42.632812 76.515625 -40.125 C 75.453125 -37.613281 74.550781 -35.421875 73.8125 -33.546875 L 62.765625 -6.625 C 61.753906 -3.675781 60.082031 -1.601562 57.75 -0.40625 C 56.738281 0.0625 55.460938 0.296875 53.921875 0.296875 C 52.378906 0.296875 50.890625 -0.285156 49.453125 -1.453125 C 48.015625 -2.628906 47.0625 -3.816406 46.59375 -5.015625 L 45.796875 -6.734375 C 45.253906 -8.066406 43.28125 -13.285156 39.875 -22.390625 C 39.195312 -20.785156 38.207031 -18.15625 36.90625 -14.5 C 35.601562 -10.851562 34.765625 -8.578125 34.390625 -7.671875 C 34.023438 -6.773438 33.789062 -6.175781 33.6875 -5.875 C 33.59375 -5.570312 33.3125 -5.019531 32.84375 -4.21875 C 32.375 -3.414062 31.835938 -2.710938 31.234375 -2.109375 C 29.628906 -0.503906 27.785156 0.296875 25.703125 0.296875 C 23.628906 0.296875 21.890625 -0.285156 20.484375 -1.453125 C 19.078125 -2.628906 18.140625 -3.816406 17.671875 -5.015625 L 2.515625 -41.96875 C 1.835938 -43.976562 1.5 -45.285156 1.5 -45.890625 C 1.5 -48.566406 3.410156 -50.675781 7.234375 -52.21875 C 9.367188 -53.09375 11.101562 -53.53125 12.4375 -53.53125 C 13.78125 -53.53125 14.867188 -53.242188 15.703125 -52.671875 C 16.546875 -52.097656 17.132812 -51.523438 17.46875 -50.953125 C 17.800781 -50.390625 18.070312 -49.804688 18.28125 -49.203125 C 19.414062 -46.523438 21.789062 -40.234375 25.40625 -30.328125 L 31.328125 -46.59375 C 31.734375 -47.9375 32.472656 -49.109375 33.546875 -50.109375 C 35.484375 -52.046875 37.457031 -53.015625 39.46875 -53.015625 C 41.476562 -53.015625 43.203125 -52.476562 44.640625 -51.40625 C 46.078125 -50.34375 47.0625 -49.273438 47.59375 -48.203125 L 48.40625 -46.5 C 51.75 -37.125 53.722656 -31.765625 54.328125 -30.421875 L 60.453125 -47.09375 C 62.054688 -51.382812 64.46875 -53.53125 67.6875 -53.53125 C 68.957031 -53.53125 70.296875 -53.191406 71.703125 -52.515625 Z M 71.703125 -52.515625 "/></g></g></g><g fill="#000000" fill-opacity="1"><g transform="translate(329.485621, 462.805633)"><g><path d="M 38.359375 -47.296875 C 38.765625 -51.046875 41.410156 -52.921875 46.296875 -52.921875 C 48.910156 -52.921875 50.851562 -52.71875 52.125 -52.3125 C 53.394531 -51.914062 54.28125 -51.210938 54.78125 -50.203125 C 55.28125 -49.203125 55.578125 -48.316406 55.671875 -47.546875 C 55.773438 -46.773438 55.828125 -45.617188 55.828125 -44.078125 L 55.828125 -8.9375 C 55.828125 -7.394531 55.773438 -6.238281 55.671875 -5.46875 C 55.578125 -4.695312 55.296875 -3.8125 54.828125 -2.8125 C 53.890625 -1.070312 51.597656 -0.203125 47.953125 -0.203125 C 44.304688 -0.203125 41.863281 -0.648438 40.625 -1.546875 C 39.382812 -2.453125 38.664062 -3.773438 38.46875 -5.515625 C 35.988281 -1.972656 31.851562 -0.203125 26.0625 -0.203125 C 20.269531 -0.203125 14.894531 -2.84375 9.9375 -8.125 C 4.988281 -13.414062 2.515625 -19.5625 2.515625 -26.5625 C 2.515625 -33.5625 5.003906 -39.6875 9.984375 -44.9375 C 14.972656 -50.195312 20.445312 -52.828125 26.40625 -52.828125 C 28.6875 -52.828125 30.765625 -52.421875 32.640625 -51.609375 C 34.515625 -50.804688 35.816406 -50.050781 36.546875 -49.34375 C 37.285156 -48.644531 37.890625 -47.960938 38.359375 -47.296875 Z M 20.078125 -26.40625 C 20.078125 -24.195312 20.945312 -22.207031 22.6875 -20.4375 C 24.4375 -18.664062 26.546875 -17.78125 29.015625 -17.78125 C 31.492188 -17.78125 33.550781 -18.679688 35.1875 -20.484375 C 36.832031 -22.296875 37.65625 -24.285156 37.65625 -26.453125 C 37.65625 -28.628906 36.867188 -30.65625 35.296875 -32.53125 C 33.722656 -34.40625 31.613281 -35.34375 28.96875 -35.34375 C 26.320312 -35.34375 24.175781 -34.40625 22.53125 -32.53125 C 20.894531 -30.65625 20.078125 -28.613281 20.078125 -26.40625 Z M 20.078125 -26.40625 "/></g></g></g><g fill="#000000" fill-opacity="1"><g transform="translate(389.331714, 462.805633)"><g><path d="M 4.015625 14.359375 L 4.015625 -44.28125 C 4.015625 -45.820312 4.0625 -46.960938 4.15625 -47.703125 C 4.257812 -48.441406 4.546875 -49.28125 5.015625 -50.21875 C 5.953125 -52.019531 8.195312 -52.921875 11.75 -52.921875 C 15.300781 -52.921875 17.691406 -52.46875 18.921875 -51.5625 C 20.160156 -50.664062 20.882812 -49.34375 21.09375 -47.59375 C 23.632812 -51.082031 27.628906 -52.828125 33.078125 -52.828125 C 38.535156 -52.828125 43.707031 -50.25 48.59375 -45.09375 C 53.488281 -39.9375 55.9375 -33.941406 55.9375 -27.109375 C 55.9375 -20.285156 53.507812 -14.296875 48.65625 -9.140625 C 43.800781 -3.984375 38.628906 -1.40625 33.140625 -1.40625 C 27.648438 -1.40625 23.664062 -2.945312 21.1875 -6.03125 L 21.1875 14.265625 C 21.1875 15.796875 21.132812 16.929688 21.03125 17.671875 C 20.9375 18.410156 20.632812 19.265625 20.125 20.234375 C 19.625 21.203125 18.769531 21.882812 17.5625 22.28125 C 16.363281 22.6875 14.726562 22.890625 12.65625 22.890625 C 10.582031 22.890625 8.925781 22.6875 7.6875 22.28125 C 6.445312 21.882812 5.570312 21.21875 5.0625 20.28125 C 4.5625 19.34375 4.257812 18.503906 4.15625 17.765625 C 4.0625 17.035156 4.015625 15.898438 4.015625 14.359375 Z M 23.890625 -32.9375 C 22.359375 -31.132812 21.59375 -29.160156 21.59375 -27.015625 C 21.59375 -24.867188 22.378906 -22.910156 23.953125 -21.140625 C 25.523438 -19.367188 27.53125 -18.484375 29.96875 -18.484375 C 32.414062 -18.484375 34.492188 -19.351562 36.203125 -21.09375 C 37.910156 -22.832031 38.765625 -24.804688 38.765625 -27.015625 C 38.765625 -29.222656 37.957031 -31.210938 36.34375 -32.984375 C 34.738281 -34.765625 32.644531 -35.65625 30.0625 -35.65625 C 27.488281 -35.65625 25.429688 -34.75 23.890625 -32.9375 Z M 23.890625 -32.9375 "/></g></g></g><g fill="#000000" fill-opacity="1"><g transform="translate(447.772022, 462.805633)"><g/></g></g><g fill="#000000" fill-opacity="1"><g transform="translate(473.176477, 462.805633)"><g><path d="M 33.03125 -52.828125 C 38.988281 -52.828125 44.460938 -50.179688 49.453125 -44.890625 C 54.441406 -39.597656 56.9375 -33.453125 56.9375 -26.453125 C 56.9375 -19.460938 54.457031 -13.335938 49.5 -8.078125 C 44.550781 -2.828125 39.226562 -0.203125 33.53125 -0.203125 C 27.84375 -0.203125 23.796875 -1.804688 21.390625 -5.015625 C 20.859375 -1.734375 17.976562 -0.09375 12.75 -0.09375 C 8.53125 -0.09375 5.953125 -1 5.015625 -2.8125 C 4.546875 -3.8125 4.257812 -4.695312 4.15625 -5.46875 C 4.0625 -6.238281 4.015625 -7.394531 4.015625 -8.9375 L 4.015625 -68.890625 C 4.015625 -70.429688 4.0625 -71.585938 4.15625 -72.359375 C 4.257812 -73.128906 4.546875 -73.984375 5.015625 -74.921875 C 5.953125 -76.722656 8.566406 -77.625 12.859375 -77.625 C 17.078125 -77.625 19.617188 -76.722656 20.484375 -74.921875 C 21.023438 -73.910156 21.34375 -73.019531 21.4375 -72.25 C 21.539062 -71.476562 21.59375 -70.320312 21.59375 -68.78125 L 21.59375 -47.90625 C 24.269531 -51.1875 28.082031 -52.828125 33.03125 -52.828125 Z M 24.25 -20.375 C 25.894531 -18.570312 27.953125 -17.671875 30.421875 -17.671875 C 32.898438 -17.671875 35.007812 -18.570312 36.75 -20.375 C 38.488281 -22.1875 39.359375 -24.195312 39.359375 -26.40625 C 39.359375 -28.613281 38.554688 -30.640625 36.953125 -32.484375 C 35.347656 -34.328125 33.207031 -35.25 30.53125 -35.25 C 27.851562 -35.25 25.726562 -34.3125 24.15625 -32.4375 C 22.582031 -30.5625 21.796875 -28.535156 21.796875 -26.359375 C 21.796875 -24.179688 22.613281 -22.1875 24.25 -20.375 Z M 24.25 -20.375 "/></g></g></g><g fill="#000000" fill-opacity="1"><g transform="translate(532.620909, 462.805633)"><g><path d="M 53.21875 -52.3125 C 57.175781 -50.570312 59.15625 -48.46875 59.15625 -46 C 59.15625 -44.789062 58.882812 -43.648438 58.34375 -42.578125 C 57.8125 -41.503906 57.546875 -40.9375 57.546875 -40.875 L 31.234375 17.96875 C 30.691406 19.25 30.238281 20.222656 29.875 20.890625 C 29.507812 21.554688 28.921875 22.191406 28.109375 22.796875 C 27.304688 23.398438 26.300781 23.703125 25.09375 23.703125 C 23.894531 23.703125 22.125 23.195312 19.78125 22.1875 C 15.832031 20.445312 13.859375 18.375 13.859375 15.96875 C 13.859375 14.363281 17.070312 6.695312 23.5 -7.03125 L 3.515625 -40.671875 C 2.171875 -42.878906 1.5 -44.519531 1.5 -45.59375 C 1.5 -47.738281 3.304688 -49.878906 6.921875 -52.015625 C 9.203125 -53.359375 10.976562 -54.03125 12.25 -54.03125 C 13.519531 -54.03125 14.554688 -53.757812 15.359375 -53.21875 C 16.160156 -52.6875 16.742188 -52.132812 17.109375 -51.5625 C 17.484375 -51 19.328125 -47.882812 22.640625 -42.21875 C 25.953125 -36.5625 29.117188 -31.289062 32.140625 -26.40625 C 32.472656 -27.476562 34.28125 -31.613281 37.5625 -38.8125 C 40.84375 -46.007812 42.597656 -49.84375 42.828125 -50.3125 C 43.066406 -50.78125 43.453125 -51.347656 43.984375 -52.015625 C 44.859375 -53.148438 46.082031 -53.71875 47.65625 -53.71875 C 49.226562 -53.71875 51.082031 -53.25 53.21875 -52.3125 Z M 53.21875 -52.3125 "/></g></g></g><g fill="#000000" fill-opacity="1"><g transform="translate(593.277743, 462.805633)"><g/></g></g><g fill="#000000" fill-opacity="1"><g transform="translate(156.321546, 603.083516)"><g><path d="M 60.359375 -12.453125 C 61.359375 -10.046875 61.859375 -8.304688 61.859375 -7.234375 C 61.859375 -4.691406 59.785156 -2.546875 55.640625 -0.796875 C 53.492188 0.140625 51.765625 0.609375 50.453125 0.609375 C 49.148438 0.609375 48.082031 0.289062 47.25 -0.34375 C 46.414062 -0.988281 45.796875 -1.644531 45.390625 -2.3125 C 44.722656 -3.582031 42.113281 -9.640625 37.5625 -20.484375 L 34.4375 -20.28125 L 21.796875 -20.28125 L 21.796875 -8.9375 C 21.796875 -7.394531 21.742188 -6.238281 21.640625 -5.46875 C 21.535156 -4.695312 21.21875 -3.8125 20.6875 -2.8125 C 19.75 -1 17.140625 -0.09375 12.859375 -0.09375 C 8.171875 -0.09375 5.425781 -1.332031 4.625 -3.8125 C 4.21875 -4.945312 4.015625 -6.6875 4.015625 -9.03125 L 4.015625 -64.765625 C 4.015625 -66.304688 4.0625 -67.460938 4.15625 -68.234375 C 4.257812 -69.003906 4.582031 -69.890625 5.125 -70.890625 C 6.0625 -72.703125 8.671875 -73.609375 12.953125 -73.609375 L 34.640625 -73.609375 C 40.535156 -73.609375 46.257812 -71.46875 51.8125 -67.1875 C 54.488281 -65.101562 56.695312 -62.285156 58.4375 -58.734375 C 60.1875 -55.191406 61.0625 -51.242188 61.0625 -46.890625 C 61.0625 -39.328125 58.550781 -33.101562 53.53125 -28.21875 C 55 -24.664062 57.273438 -19.410156 60.359375 -12.453125 Z M 21.796875 -38.0625 L 34.640625 -38.0625 C 36.585938 -38.0625 38.53125 -38.796875 40.46875 -40.265625 C 42.40625 -41.742188 43.375 -43.953125 43.375 -46.890625 C 43.375 -49.835938 42.40625 -52.0625 40.46875 -53.5625 C 38.53125 -55.070312 36.519531 -55.828125 34.4375 -55.828125 L 21.796875 -55.828125 Z M 21.796875 -38.0625 "/></g></g></g><g fill="#000000" fill-opacity="1"><g transform="translate(219.682091, 603.083516)"><g><path d="M 55.03125 -32.78125 C 55.03125 -28.664062 54.007812 -25.617188 51.96875 -23.640625 C 49.925781 -21.671875 47.664062 -20.6875 45.1875 -20.6875 L 21.390625 -20.6875 C 21.390625 -18.8125 22.492188 -17.238281 24.703125 -15.96875 C 26.910156 -14.695312 29.117188 -14.0625 31.328125 -14.0625 C 35.210938 -14.0625 38.257812 -14.460938 40.46875 -15.265625 L 41.578125 -15.671875 C 43.179688 -16.398438 44.519531 -16.765625 45.59375 -16.765625 C 47.738281 -16.765625 49.578125 -15.257812 51.109375 -12.25 C 51.984375 -10.445312 52.421875 -8.90625 52.421875 -7.625 C 52.421875 -1.664062 45.289062 1.3125 31.03125 1.3125 C 26.070312 1.3125 21.664062 0.457031 17.8125 -1.25 C 13.96875 -2.957031 10.976562 -5.21875 8.84375 -8.03125 C 4.625 -13.457031 2.515625 -19.515625 2.515625 -26.203125 C 2.515625 -34.640625 5.238281 -41.382812 10.6875 -46.4375 C 16.144531 -51.5 22.957031 -54.03125 31.125 -54.03125 C 40.4375 -54.03125 47.265625 -50.75 51.609375 -44.1875 C 53.890625 -40.707031 55.03125 -36.90625 55.03125 -32.78125 Z M 33.84375 -29.828125 C 36.382812 -29.828125 37.65625 -30.894531 37.65625 -33.03125 C 37.65625 -34.570312 37.066406 -35.8125 35.890625 -36.75 C 34.722656 -37.6875 33.050781 -38.15625 30.875 -38.15625 C 28.695312 -38.15625 26.535156 -37.269531 24.390625 -35.5 C 22.253906 -33.726562 21.1875 -31.835938 21.1875 -29.828125 Z M 33.84375 -29.828125 "/></g></g></g><g fill="#000000" fill-opacity="1"><g transform="translate(277.218689, 603.083516)"><g><path d="M 34.953125 -52.828125 C 39.566406 -52.828125 42.273438 -51.550781 43.078125 -49 C 43.484375 -47.726562 43.6875 -46.054688 43.6875 -43.984375 C 43.6875 -41.910156 43.46875 -40.253906 43.03125 -39.015625 C 42.59375 -37.773438 41.90625 -36.890625 40.96875 -36.359375 C 39.5625 -35.546875 37.519531 -35.140625 34.84375 -35.140625 L 28.421875 -35.546875 L 28.421875 -8.640625 C 28.421875 -6.085938 28.101562 -4.191406 27.46875 -2.953125 C 26.832031 -1.722656 25.859375 -0.90625 24.546875 -0.5 C 23.242188 -0.101562 21.554688 0.09375 19.484375 0.09375 C 17.410156 0.09375 15.753906 -0.117188 14.515625 -0.546875 C 13.273438 -0.984375 12.382812 -1.6875 11.84375 -2.65625 C 11.3125 -3.632812 10.992188 -4.523438 10.890625 -5.328125 C 10.796875 -6.128906 10.75 -7.300781 10.75 -8.84375 L 10.75 -35.453125 L 7.125 -35.453125 C 5.382812 -35.585938 4.148438 -35.988281 3.421875 -36.65625 C 2.140625 -37.925781 1.5 -40.367188 1.5 -43.984375 C 1.5 -49.472656 3.476562 -52.21875 7.4375 -52.21875 L 10.75 -52.21875 L 10.75 -57.546875 C 10.75 -62.703125 12.585938 -67.367188 16.265625 -71.546875 C 19.953125 -75.734375 25.273438 -77.828125 32.234375 -77.828125 C 33.773438 -77.828125 34.929688 -77.773438 35.703125 -77.671875 C 36.472656 -77.578125 37.359375 -77.257812 38.359375 -76.71875 C 40.171875 -75.851562 41.078125 -73.273438 41.078125 -68.984375 C 41.078125 -65.773438 40.503906 -63.46875 39.359375 -62.0625 C 38.421875 -60.988281 36.953125 -60.382812 34.953125 -60.25 C 34.347656 -60.25 33.410156 -60.25 32.140625 -60.25 C 29.660156 -60.25 28.421875 -59.414062 28.421875 -57.75 L 28.421875 -52.21875 Z M 34.953125 -52.828125 "/></g></g></g><g fill="#000000" fill-opacity="1"><g transform="translate(322.404498, 603.083516)"><g><path d="M 55.03125 -32.78125 C 55.03125 -28.664062 54.007812 -25.617188 51.96875 -23.640625 C 49.925781 -21.671875 47.664062 -20.6875 45.1875 -20.6875 L 21.390625 -20.6875 C 21.390625 -18.8125 22.492188 -17.238281 24.703125 -15.96875 C 26.910156 -14.695312 29.117188 -14.0625 31.328125 -14.0625 C 35.210938 -14.0625 38.257812 -14.460938 40.46875 -15.265625 L 41.578125 -15.671875 C 43.179688 -16.398438 44.519531 -16.765625 45.59375 -16.765625 C 47.738281 -16.765625 49.578125 -15.257812 51.109375 -12.25 C 51.984375 -10.445312 52.421875 -8.90625 52.421875 -7.625 C 52.421875 -1.664062 45.289062 1.3125 31.03125 1.3125 C 26.070312 1.3125 21.664062 0.457031 17.8125 -1.25 C 13.96875 -2.957031 10.976562 -5.21875 8.84375 -8.03125 C 4.625 -13.457031 2.515625 -19.515625 2.515625 -26.203125 C 2.515625 -34.640625 5.238281 -41.382812 10.6875 -46.4375 C 16.144531 -51.5 22.957031 -54.03125 31.125 -54.03125 C 40.4375 -54.03125 47.265625 -50.75 51.609375 -44.1875 C 53.890625 -40.707031 55.03125 -36.90625 55.03125 -32.78125 Z M 33.84375 -29.828125 C 36.382812 -29.828125 37.65625 -30.894531 37.65625 -33.03125 C 37.65625 -34.570312 37.066406 -35.8125 35.890625 -36.75 C 34.722656 -37.6875 33.050781 -38.15625 30.875 -38.15625 C 28.695312 -38.15625 26.535156 -37.269531 24.390625 -35.5 C 22.253906 -33.726562 21.1875 -31.835938 21.1875 -29.828125 Z M 33.84375 -29.828125 "/></g></g></g><g fill="#000000" fill-opacity="1"><g transform="translate(379.941096, 603.083516)"><g><path d="M 39.96875 -52.3125 C 41.238281 -51.914062 42.289062 -51.234375 43.125 -50.265625 C 43.96875 -49.296875 44.390625 -47.738281 44.390625 -45.59375 C 44.390625 -43.445312 43.753906 -41.101562 42.484375 -38.5625 C 41.210938 -36.019531 39.367188 -34.75 36.953125 -34.75 C 35.742188 -34.75 34.585938 -35.015625 33.484375 -35.546875 C 32.378906 -36.085938 30.921875 -36.359375 29.109375 -36.359375 C 27.304688 -36.359375 25.617188 -35.71875 24.046875 -34.4375 C 22.472656 -33.164062 21.6875 -31.628906 21.6875 -29.828125 L 21.6875 -8.734375 C 21.6875 -7.191406 21.632812 -6.035156 21.53125 -5.265625 C 21.4375 -4.503906 21.125 -3.617188 20.59375 -2.609375 C 19.582031 -0.867188 16.96875 0 12.75 0 C 9.539062 0 7.234375 -0.566406 5.828125 -1.703125 C 4.753906 -2.640625 4.148438 -4.082031 4.015625 -6.03125 C 4.015625 -6.695312 4.015625 -7.664062 4.015625 -8.9375 L 4.015625 -44.1875 C 4.015625 -45.726562 4.0625 -46.882812 4.15625 -47.65625 C 4.257812 -48.425781 4.546875 -49.28125 5.015625 -50.21875 C 5.953125 -52.019531 8.566406 -52.921875 12.859375 -52.921875 C 16.867188 -52.921875 19.378906 -52.148438 20.390625 -50.609375 C 21.117188 -49.535156 21.484375 -48.429688 21.484375 -47.296875 C 21.828125 -47.765625 22.316406 -48.332031 22.953125 -49 C 23.585938 -49.675781 24.941406 -50.582031 27.015625 -51.71875 C 29.085938 -52.851562 30.910156 -53.421875 32.484375 -53.421875 C 34.054688 -53.421875 35.378906 -53.335938 36.453125 -53.171875 C 37.523438 -53.003906 38.695312 -52.71875 39.96875 -52.3125 Z M 39.96875 -52.3125 "/></g></g></g><g fill="#000000" fill-opacity="1"><g transform="translate(425.829784, 603.083516)"><g><path d="M 55.03125 -32.78125 C 55.03125 -28.664062 54.007812 -25.617188 51.96875 -23.640625 C 49.925781 -21.671875 47.664062 -20.6875 45.1875 -20.6875 L 21.390625 -20.6875 C 21.390625 -18.8125 22.492188 -17.238281 24.703125 -15.96875 C 26.910156 -14.695312 29.117188 -14.0625 31.328125 -14.0625 C 35.210938 -14.0625 38.257812 -14.460938 40.46875 -15.265625 L 41.578125 -15.671875 C 43.179688 -16.398438 44.519531 -16.765625 45.59375 -16.765625 C 47.738281 -16.765625 49.578125 -15.257812 51.109375 -12.25 C 51.984375 -10.445312 52.421875 -8.90625 52.421875 -7.625 C 52.421875 -1.664062 45.289062 1.3125 31.03125 1.3125 C 26.070312 1.3125 21.664062 0.457031 17.8125 -1.25 C 13.96875 -2.957031 10.976562 -5.21875 8.84375 -8.03125 C 4.625 -13.457031 2.515625 -19.515625 2.515625 -26.203125 C 2.515625 -34.640625 5.238281 -41.382812 10.6875 -46.4375 C 16.144531 -51.5 22.957031 -54.03125 31.125 -54.03125 C 40.4375 -54.03125 47.265625 -50.75 51.609375 -44.1875 C 53.890625 -40.707031 55.03125 -36.90625 55.03125 -32.78125 Z M 33.84375 -29.828125 C 36.382812 -29.828125 37.65625 -30.894531 37.65625 -33.03125 C 37.65625 -34.570312 37.066406 -35.8125 35.890625 -36.75 C 34.722656 -37.6875 33.050781 -38.15625 30.875 -38.15625 C 28.695312 -38.15625 26.535156 -37.269531 24.390625 -35.5 C 22.253906 -33.726562 21.1875 -31.835938 21.1875 -29.828125 Z M 33.84375 -29.828125 "/></g></g></g><g fill="#000000" fill-opacity="1"><g transform="translate(483.366382, 603.083516)"><g><path d="M 33.4375 -52.921875 C 40.132812 -52.921875 45.707031 -50.359375 50.15625 -45.234375 C 54.613281 -40.117188 56.84375 -33.878906 56.84375 -26.515625 L 56.84375 -8.84375 C 56.84375 -7.300781 56.789062 -6.144531 56.6875 -5.375 C 56.582031 -4.601562 56.296875 -3.75 55.828125 -2.8125 C 54.890625 -1 52.28125 -0.09375 48 -0.09375 C 43.25 -0.09375 40.503906 -1.332031 39.765625 -3.8125 C 39.367188 -4.945312 39.171875 -6.65625 39.171875 -8.9375 L 39.171875 -26.609375 C 39.171875 -29.359375 38.378906 -31.5 36.796875 -33.03125 C 35.222656 -34.570312 33.113281 -35.34375 30.46875 -35.34375 C 27.832031 -35.34375 25.691406 -34.539062 24.046875 -32.9375 C 22.410156 -31.332031 21.59375 -29.222656 21.59375 -26.609375 L 21.59375 -8.84375 C 21.59375 -7.300781 21.539062 -6.144531 21.4375 -5.375 C 21.34375 -4.601562 21.023438 -3.75 20.484375 -2.8125 C 19.617188 -1 17.039062 -0.09375 12.75 -0.09375 C 8.53125 -0.09375 5.953125 -1 5.015625 -2.8125 C 4.546875 -3.8125 4.257812 -4.695312 4.15625 -5.46875 C 4.0625 -6.238281 4.015625 -7.394531 4.015625 -8.9375 L 4.015625 -44.484375 C 4.015625 -45.960938 4.0625 -47.082031 4.15625 -47.84375 C 4.257812 -48.613281 4.582031 -49.46875 5.125 -50.40625 C 6.0625 -52.082031 8.640625 -52.921875 12.859375 -52.921875 C 16.941406 -52.921875 19.453125 -52.148438 20.390625 -50.609375 C 21.054688 -49.472656 21.390625 -48.101562 21.390625 -46.5 C 21.660156 -46.96875 22.265625 -47.632812 23.203125 -48.5 C 24.140625 -49.375 25.039062 -50.078125 25.90625 -50.609375 C 28.1875 -52.148438 30.695312 -52.921875 33.4375 -52.921875 Z M 33.4375 -52.921875 "/></g></g></g><g fill="#000000" fill-opacity="1"><g transform="translate(544.2166, 603.083516)"><g><path d="M 20.59375 -26.453125 C 20.59375 -23.609375 21.523438 -21.398438 23.390625 -19.828125 C 25.265625 -18.253906 27.253906 -17.46875 29.359375 -17.46875 C 31.472656 -17.46875 33.453125 -18.085938 35.296875 -19.328125 C 37.140625 -20.566406 38.628906 -21.1875 39.765625 -21.1875 C 41.773438 -21.1875 44.21875 -19.410156 47.09375 -15.859375 C 48.632812 -13.921875 49.40625 -12.179688 49.40625 -10.640625 C 49.40625 -8.097656 47.566406 -5.722656 43.890625 -3.515625 C 40.066406 -0.835938 35.378906 0.5 29.828125 0.5 C 23.597656 0.5 17.601562 -1.738281 11.84375 -6.21875 C 9.101562 -8.363281 6.863281 -11.226562 5.125 -14.8125 C 3.382812 -18.394531 2.515625 -22.34375 2.515625 -26.65625 C 2.515625 -30.976562 3.382812 -34.894531 5.125 -38.40625 C 6.863281 -41.925781 9.101562 -44.753906 11.84375 -46.890625 C 17.40625 -51.316406 23.332031 -53.53125 29.625 -53.53125 C 32.164062 -53.53125 34.640625 -53.175781 37.046875 -52.46875 C 39.460938 -51.769531 41.238281 -51.082031 42.375 -50.40625 L 43.984375 -49.40625 C 45.191406 -48.601562 46.128906 -47.96875 46.796875 -47.5 C 48.535156 -46.15625 49.40625 -44.628906 49.40625 -42.921875 C 49.40625 -41.222656 48.703125 -39.300781 47.296875 -37.15625 C 44.890625 -33.476562 42.582031 -31.640625 40.375 -31.640625 C 39.101562 -31.640625 37.296875 -32.375 34.953125 -33.84375 C 33.742188 -34.976562 32.015625 -35.546875 29.765625 -35.546875 C 27.523438 -35.546875 25.4375 -34.742188 23.5 -33.140625 C 21.5625 -31.535156 20.59375 -29.304688 20.59375 -26.453125 Z M 20.59375 -26.453125 "/></g></g></g><g fill="#000000" fill-opacity="1"><g transform="translate(596.130052, 603.083516)"><g><path d="M 55.03125 -32.78125 C 55.03125 -28.664062 54.007812 -25.617188 51.96875 -23.640625 C 49.925781 -21.671875 47.664062 -20.6875 45.1875 -20.6875 L 21.390625 -20.6875 C 21.390625 -18.8125 22.492188 -17.238281 24.703125 -15.96875 C 26.910156 -14.695312 29.117188 -14.0625 31.328125 -14.0625 C 35.210938 -14.0625 38.257812 -14.460938 40.46875 -15.265625 L 41.578125 -15.671875 C 43.179688 -16.398438 44.519531 -16.765625 45.59375 -16.765625 C 47.738281 -16.765625 49.578125 -15.257812 51.109375 -12.25 C 51.984375 -10.445312 52.421875 -8.90625 52.421875 -7.625 C 52.421875 -1.664062 45.289062 1.3125 31.03125 1.3125 C 26.070312 1.3125 21.664062 0.457031 17.8125 -1.25 C 13.96875 -2.957031 10.976562 -5.21875 8.84375 -8.03125 C 4.625 -13.457031 2.515625 -19.515625 2.515625 -26.203125 C 2.515625 -34.640625 5.238281 -41.382812 10.6875 -46.4375 C 16.144531 -51.5 22.957031 -54.03125 31.125 -54.03125 C 40.4375 -54.03125 47.265625 -50.75 51.609375 -44.1875 C 53.890625 -40.707031 55.03125 -36.90625 55.03125 -32.78125 Z M 33.84375 -29.828125 C 36.382812 -29.828125 37.65625 -30.894531 37.65625 -33.03125 C 37.65625 -34.570312 37.066406 -35.8125 35.890625 -36.75 C 34.722656 -37.6875 33.050781 -38.15625 30.875 -38.15625 C 28.695312 -38.15625 26.535156 -37.269531 24.390625 -35.5 C 22.253906 -33.726562 21.1875 -31.835938 21.1875 -29.828125 Z M 33.84375 -29.828125 "/></g></g></g><path stroke-linecap="round" transform="matrix(0.987192, 0, 0, -0.986957, 180.14907, 269.716442)" fill="none" stroke-linejoin="round" d="M 104.782781 118.29853 C 104.782781 118.29853 126.158109 156.270378 126.158109 172.545158 C 126.158109 184.343581 116.582342 193.921638 104.782781 193.921638 C 92.987177 193.921638 83.407454 184.343581 83.407454 172.545158 C 83.407454 156.270378 104.782781 118.29853 104.782781 118.29853 Z M 104.782781 118.29853 " stroke="#000000" stroke-width="8.33" stroke-opacity="1" stroke-miterlimit="1.5"/><path stroke-linecap="round" transform="matrix(0.987192, 0, 0, -0.986957, 177.751679, 269.397662)" fill="none" stroke-linejoin="round" d="M 113.391997 167.318358 C 113.391997 167.809135 113.348471 168.291995 113.261419 168.774856 C 113.174366 169.253759 113.047745 169.720788 112.877597 170.171986 C 112.703492 170.627141 112.497732 171.054592 112.248445 171.462253 C 111.999159 171.869914 111.718217 172.245912 111.401662 172.594205 C 111.089065 172.93854 110.744812 173.247254 110.372861 173.520348 C 110.00091 173.793441 109.609174 174.022998 109.197653 174.209018 C 108.786133 174.398996 108.362741 174.537521 107.923522 174.636468 C 107.48826 174.731457 107.045084 174.778952 106.597951 174.778952 C 106.154775 174.778952 105.711599 174.731457 105.27238 174.636468 C 104.837118 174.537521 104.40977 174.398996 103.998249 174.209018 C 103.586729 174.022998 103.194993 173.793441 102.823041 173.520348 C 102.455047 173.247254 102.110794 172.93854 101.79424 172.594205 C 101.477686 172.245912 101.196744 171.869914 100.951414 171.462253 C 100.702128 171.054592 100.492411 170.627141 100.322263 170.171986 C 100.152115 169.720788 100.021536 169.253759 99.934484 168.774856 C 99.847431 168.291995 99.803905 167.809135 99.803905 167.318358 C 99.803905 166.827582 99.847431 166.344721 99.934484 165.86186 C 100.021536 165.382958 100.152115 164.915928 100.322263 164.464731 C 100.492411 164.013533 100.702128 163.582125 100.951414 163.174464 C 101.196744 162.766803 101.477686 162.390804 101.79424 162.046469 C 102.110794 161.698176 102.455047 161.389462 102.823041 161.116369 C 103.194993 160.843275 103.586729 160.613719 103.998249 160.427699 C 104.40977 160.241679 104.837118 160.099195 105.27238 160.004206 C 105.711599 159.909217 106.154775 159.861723 106.597951 159.861723 C 107.045084 159.861723 107.48826 159.909217 107.923522 160.004206 C 108.362741 160.099195 108.786133 160.241679 109.197653 160.427699 C 109.609174 160.613719 110.00091 160.843275 110.372861 161.116369 C 110.744812 161.389462 111.089065 161.698176 111.401662 162.046469 C 111.718217 162.390804 111.999159 162.766803 112.248445 163.174464 C 112.497732 163.582125 112.703492 164.013533 112.877597 164.464731 C 113.047745 164.915928 113.174366 165.382958 113.261419 165.86186 C 113.348471 166.344721 113.391997 166.827582 113.391997 167.318358 Z M 113.391997 167.318358 " stroke="#000000" stroke-width="4.17" stroke-opacity="1" stroke-miterlimit="1.5"/><path stroke-linecap="round" transform="matrix(0.987192, 0, 0, 0.986957, 180.14907, -38.431293)" fill-opacity="1" fill="#000000" fill-rule="nonzero" stroke-linejoin="round" d="M 111.580784 206.970757 C 111.580784 207.346756 111.541215 207.722754 111.458119 208.094794 C 111.378981 208.466834 111.256316 208.830958 111.098039 209.179251 C 110.935805 209.531502 110.737958 209.863964 110.508457 210.180594 C 110.274998 210.493266 110.009884 210.786148 109.713114 211.055284 C 109.416344 211.324419 109.095833 211.561892 108.747623 211.771659 C 108.399414 211.985384 108.031419 212.163489 107.64364 212.305972 C 107.255861 212.452414 106.856212 212.563234 106.444691 212.634476 C 106.03317 212.709675 105.62165 212.745296 105.202215 212.745296 C 104.782781 212.745296 104.367304 212.709675 103.955783 212.634476 C 103.544262 212.563234 103.144613 212.452414 102.760791 212.305972 C 102.373012 212.163489 102.005017 211.985384 101.656808 211.771659 C 101.308598 211.561892 100.98413 211.324419 100.68736 211.055284 C 100.394547 210.786148 100.129433 210.493266 99.895974 210.180594 C 99.662516 209.863964 99.464669 209.531502 99.306392 209.179251 C 99.144158 208.830958 99.02545 208.466834 98.942355 208.094794 C 98.859259 207.722754 98.81969 207.346756 98.81969 206.970757 C 98.81969 206.590802 98.859259 206.214803 98.942355 205.842763 C 99.02545 205.470723 99.144158 205.106599 99.306392 204.758306 C 99.464669 204.406055 99.662516 204.073593 99.895974 203.756963 C 100.129433 203.444291 100.394547 203.151409 100.68736 202.882273 C 100.98413 202.613138 101.308598 202.375665 101.656808 202.165898 C 102.005017 201.952173 102.373012 201.774068 102.760791 201.631585 C 103.144613 201.485143 103.544262 201.374323 103.955783 201.303081 C 104.367304 201.227882 104.782781 201.192261 105.202215 201.192261 C 105.62165 201.192261 106.03317 201.227882 106.444691 201.303081 C 106.856212 201.374323 107.255861 201.485143 107.64364 201.631585 C 108.031419 201.774068 108.399414 201.952173 108.747623 202.165898 C 109.095833 202.375665 109.416344 202.613138 109.713114 202.882273 C 110.009884 203.151409 110.274998 203.444291 110.508457 203.756963 C 110.737958 204.073593 110.935805 204.406055 111.098039 204.758306 C 111.256316 205.106599 111.378981 205.470723 111.458119 205.842763 C 111.541215 206.214803 111.580784 206.590802 111.580784 206.970757 Z M 111.580784 206.970757 " stroke="#000000" stroke-width="4.17" stroke-opacity="1" stroke-miterlimit="1.5"/><g clip-path="url(#710c343650)"><g fill="#000000" fill-opacity="1"><g transform="translate(565.370782, 8.110801)"><g><path d="M -41.34375 1.140625 L -25.703125 23.625 L -11.203125 0.3125 L -1.1875 0.03125 L -20.265625 29.265625 L -0.59375 55.90625 L -10.859375 56.1875 L -25.390625 34.828125 L -38.625 56.953125 L -49.015625 57.234375 L -30.796875 29.671875 L -51.734375 1.421875 Z M -41.34375 1.140625 "/></g></g></g></g><path fill="#000000" d="M 271.652344 180.402344 C 275.347656 177.765625 280.492188 178.625 283.128906 182.316406 C 285.769531 186.007812 284.914062 191.148438 281.21875 193.792969 C 277.523438 196.429688 272.382812 195.570312 269.742188 191.878906 C 267.101562 188.1875 267.957031 183.046875 271.652344 180.402344 Z M 251.425781 195.90625 C 254.933594 193.023438 260.121094 193.527344 263.007812 197.03125 C 265.894531 200.535156 265.390625 205.726562 261.886719 208.609375 C 258.382812 211.488281 253.195312 210.988281 250.308594 207.484375 C 247.421875 203.980469 247.921875 198.796875 251.425781 195.90625 Z M 232.324219 212.871094 C 235.601562 209.734375 240.8125 209.832031 243.957031 213.109375 C 247.105469 216.375 247 221.585938 243.726562 224.734375 C 240.449219 227.882812 235.238281 227.773438 232.09375 224.507812 C 228.949219 221.230469 229.050781 216.019531 232.324219 212.871094 Z M 214.613281 231.417969 C 217.59375 228 222.796875 227.636719 226.21875 230.628906 C 229.644531 233.609375 230 238.800781 227.019531 242.222656 C 224.035156 245.648438 218.835938 246.003906 215.414062 243.023438 C 211.988281 240.042969 211.628906 234.839844 214.613281 231.417969 Z M 198.703125 251.757812 C 201.292969 248.027344 206.421875 247.097656 210.152344 249.683594 C 213.882812 252.269531 214.808594 257.402344 212.222656 261.132812 C 209.632812 264.863281 204.503906 265.78125 200.773438 263.195312 C 197.042969 260.609375 196.117188 255.480469 198.703125 251.757812 Z M 185.355469 274.222656 C 187.355469 270.144531 192.289062 268.457031 196.367188 270.460938 C 200.441406 272.464844 202.121094 277.398438 200.117188 281.476562 C 198.117188 285.550781 193.183594 287.230469 189.105469 285.226562 C 185.03125 283.222656 183.351562 278.289062 185.355469 274.222656 Z M 176.195312 299.40625 C 177.1875 294.976562 181.59375 292.183594 186.023438 293.179688 C 190.453125 294.175781 193.242188 298.578125 192.25 303.011719 C 191.253906 307.433594 186.851562 310.226562 182.421875 309.226562 C 177.992188 308.242188 175.199219 303.839844 176.195312 299.40625 Z M 175.613281 327.742188 C 174.609375 323.3125 177.386719 318.902344 181.8125 317.894531 C 186.238281 316.886719 190.652344 319.671875 191.660156 324.089844 C 192.664062 328.523438 189.886719 332.933594 185.460938 333.941406 C 181.03125 334.949219 176.621094 332.164062 175.613281 327.742188 Z M 191.660156 353.050781 C 188.066406 350.277344 187.410156 345.105469 190.191406 341.511719 C 192.96875 337.917969 198.140625 337.269531 201.730469 340.039062 C 205.320312 342.824219 205.980469 347.996094 203.199219 351.578125 C 200.421875 355.171875 195.25 355.832031 191.660156 353.050781 Z M 217.945312 364.140625 C 213.484375 363.292969 210.554688 358.992188 211.402344 354.53125 C 212.25 350.070312 216.5625 347.136719 221.023438 347.984375 C 225.480469 348.835938 228.414062 353.148438 227.566406 357.609375 C 226.71875 362.058594 222.40625 364.992188 217.945312 364.140625 Z M 244.773438 365.730469 C 240.238281 365.976562 236.351562 362.503906 236.097656 357.972656 C 235.84375 353.445312 239.320312 349.554688 243.851562 349.308594 C 248.386719 349.050781 252.269531 352.527344 252.527344 357.054688 C 252.78125 361.585938 249.304688 365.476562 244.773438 365.730469 Z M 271.539062 360.054688 C 267.296875 361.675781 262.539062 359.542969 260.914062 355.308594 C 259.292969 351.066406 261.421875 346.308594 265.664062 344.691406 C 269.902344 343.070312 274.664062 345.191406 276.285156 349.4375 C 277.90625 353.671875 275.777344 358.4375 271.539062 360.054688 Z M 295.207031 346.859375 C 291.5625 349.566406 286.402344 348.816406 283.695312 345.164062 C 280.984375 341.519531 281.742188 336.371094 285.386719 333.65625 C 289.03125 330.949219 294.1875 331.710938 296.898438 335.351562 C 299.605469 338.996094 298.847656 344.148438 295.207031 346.859375 Z M 314.738281 329.195312 C 311.625 332.5 306.414062 332.660156 303.109375 329.539062 C 299.804688 326.429688 299.652344 321.21875 302.765625 317.914062 C 305.882812 314.605469 311.09375 314.460938 314.394531 317.566406 C 317.699219 320.6875 317.855469 325.898438 314.738281 329.195312 Z M 331.386719 309.75 C 328.554688 313.304688 323.375 313.886719 319.824219 311.054688 C 316.273438 308.222656 315.6875 303.050781 318.519531 299.496094 C 321.347656 295.945312 326.53125 295.363281 330.078125 298.195312 C 333.628906 301.015625 334.214844 306.199219 331.386719 309.75 Z M 346.773438 290.089844 C 343.964844 293.652344 338.785156 294.265625 335.222656 291.453125 C 331.65625 288.648438 331.046875 283.46875 333.855469 279.90625 C 336.667969 276.34375 341.84375 275.730469 345.410156 278.542969 C 348.976562 281.355469 349.585938 286.527344 346.773438 290.089844 Z M 362.394531 271.507812 C 359.3125 274.832031 354.105469 275.050781 350.765625 271.96875 C 347.433594 268.890625 347.222656 263.679688 350.304688 260.34375 C 353.382812 257.007812 358.59375 256.800781 361.925781 259.878906 C 365.265625 262.960938 365.472656 268.171875 362.394531 271.507812 Z M 379.582031 255.765625 C 375.921875 258.449219 370.769531 257.660156 368.085938 254 C 365.402344 250.335938 366.195312 245.183594 369.855469 242.5 C 373.519531 239.816406 378.671875 240.613281 381.355469 244.277344 C 384.039062 247.9375 383.246094 253.089844 379.582031 255.765625 Z M 399.1875 245.648438 C 394.84375 246.980469 390.242188 244.535156 388.914062 240.191406 C 387.585938 235.859375 390.03125 231.25 394.375 229.925781 C 398.714844 228.59375 403.320312 231.042969 404.648438 235.382812 C 405.976562 239.726562 403.527344 244.324219 399.1875 245.648438 Z M 420.148438 243.339844 C 415.660156 242.636719 412.589844 238.425781 413.292969 233.941406 C 413.996094 229.453125 418.207031 226.382812 422.695312 227.082031 C 427.179688 227.792969 430.25 232 429.546875 236.488281 C 428.84375 240.96875 424.632812 244.039062 420.148438 243.339844 Z M 445.632812 246.203125 C 441.101562 245.894531 437.671875 241.96875 437.976562 237.4375 C 438.28125 232.90625 442.207031 229.480469 446.738281 229.789062 C 451.265625 230.09375 454.695312 234.011719 454.390625 238.542969 C 454.089844 243.074219 450.164062 246.496094 445.632812 246.203125 Z M 471.425781 246.625 C 466.890625 246.8125 463.058594 243.269531 462.878906 238.738281 C 462.695312 234.199219 466.230469 230.371094 470.769531 230.191406 C 475.304688 230.003906 479.136719 233.546875 479.316406 238.078125 C 479.5 242.617188 475.960938 246.449219 471.425781 246.625 Z M 497.558594 243.515625 C 493.121094 244.472656 488.742188 241.652344 487.78125 237.21875 C 486.820312 232.777344 489.644531 228.394531 494.082031 227.4375 C 498.519531 226.480469 502.902344 229.304688 503.863281 233.734375 C 504.820312 238.175781 501.996094 242.558594 497.558594 243.515625 Z M 523.394531 233.527344 C 519.566406 235.976562 514.476562 234.839844 512.035156 231.011719 C 509.597656 227.191406 510.722656 222.101562 514.554688 219.660156 C 518.382812 217.222656 523.472656 218.347656 525.914062 222.179688 C 528.351562 226.007812 527.222656 231.089844 523.394531 233.527344 Z M 542.160156 210.207031 C 540.730469 214.519531 536.070312 216.859375 531.761719 215.429688 C 527.453125 214.007812 525.113281 209.347656 526.539062 205.035156 C 527.96875 200.730469 532.628906 198.382812 536.9375 199.8125 C 541.246094 201.246094 543.585938 205.902344 542.160156 210.207031 Z M 537.769531 179.75 C 540.011719 183.695312 538.625 188.722656 534.679688 190.960938 C 530.730469 193.203125 525.703125 191.820312 523.460938 187.871094 C 521.21875 183.925781 522.605469 178.902344 526.554688 176.660156 C 530.5 174.417969 535.527344 175.800781 537.769531 179.75 Z M 521.539062 158.519531 C 524.605469 161.867188 524.378906 167.078125 521.03125 170.144531 C 517.683594 173.207031 512.476562 172.980469 509.410156 169.632812 C 506.34375 166.289062 506.570312 161.078125 509.917969 158.015625 C 513.265625 154.945312 518.472656 155.175781 521.539062 158.519531 Z M 503.820312 140.417969 C 507.050781 143.605469 507.082031 148.816406 503.890625 152.054688 C 500.699219 155.28125 495.488281 155.3125 492.257812 152.125 C 489.027344 148.9375 488.996094 143.726562 492.183594 140.488281 C 495.375 137.261719 500.589844 137.230469 503.820312 140.417969 Z M 486.425781 122.921875 C 489.554688 126.21875 489.425781 131.429688 486.136719 134.558594 C 482.847656 137.683594 477.636719 137.558594 474.507812 134.261719 C 471.375 130.972656 471.507812 125.761719 474.792969 122.632812 C 478.082031 119.503906 483.296875 119.632812 486.425781 122.921875 Z M 470.863281 104.800781 C 473.5625 108.453125 472.789062 113.605469 469.140625 116.308594 C 465.488281 119.003906 460.332031 118.230469 457.632812 114.582031 C 454.933594 110.929688 455.707031 105.777344 459.359375 103.074219 C 463.007812 100.378906 468.164062 101.148438 470.863281 104.800781 Z M 460.230469 85.40625 C 461.605469 89.738281 459.203125 94.367188 454.875 95.738281 C 450.546875 97.113281 445.917969 94.703125 444.546875 90.378906 C 443.175781 86.058594 445.574219 81.429688 449.902344 80.058594 C 454.230469 78.683594 458.859375 81.082031 460.230469 85.40625 Z M 460.429688 66.476562 C 458.769531 70.710938 453.996094 72.792969 449.765625 71.136719 C 445.539062 69.476562 443.453125 64.699219 445.109375 60.476562 C 446.769531 56.25 451.546875 54.167969 455.773438 55.816406 C 460 57.476562 462.085938 62.253906 460.429688 66.476562 Z M 473.15625 50.84375 C 469.546875 53.597656 464.378906 52.90625 461.625 49.292969 C 458.871094 45.679688 459.566406 40.519531 463.179688 37.765625 C 466.789062 35.011719 471.957031 35.714844 474.707031 39.316406 C 477.460938 42.925781 476.765625 48.089844 473.15625 50.84375 Z M 491.582031 42.433594 C 487.070312 42.949219 482.988281 39.710938 482.472656 35.199219 C 481.957031 30.6875 485.203125 26.613281 489.710938 26.089844 C 494.222656 25.578125 498.304688 28.824219 498.820312 33.324219 C 499.335938 37.84375 496.09375 41.921875 491.582031 42.433594 Z M 513.765625 48.601562 C 509.238281 48.277344 505.828125 44.339844 506.15625 39.808594 C 506.484375 35.277344 510.429688 31.875 514.957031 32.199219 C 519.484375 32.535156 522.894531 36.472656 522.566406 41.003906 C 522.238281 45.523438 518.292969 48.9375 513.765625 48.601562 Z M 513.765625 48.601562 " fill-opacity="1" fill-rule="evenodd"/></svg>